<svg xmlns="http://www.w3.org/2000/svg" viewBox="0 0 249.43 267.85">
  <g id="Layer_2" data-name="Layer 2">
    <g id="Layer_1-2" data-name="Layer 1">
      <path d="M181.13,194.64A66,66,0,0,1,167.4,218a58.74,58.74,0,0,1-21.65,14.69,76.81,76.81,0,0,1-28.49,5,249.41,249.41,0,0,1-26.82-1.6A160.06,160.06,0,0,1,64.09,231a6.24,6.24,0,0,1-4.39-6.06V21.85a6.2,6.2,0,0,1,4.78-6.13L93.64,9.54a5.81,5.81,0,0,1,1.17-.12,6.09,6.09,0,0,1,5.93,6.25V99.73c0,2.57-.06,4.92-.21,7-.13,2.32-.2,4.58-.2,6.76l.41,13.85v79.34a4.7,4.7,0,0,0,4.12,4.66c.52.07,1,.13,1.58.18,2.92.27,5.76.4,8.43.4a61.75,61.75,0,0,0,13.19-1.2c3.29-.73,5.76-1.91,7.32-3.52,1.72-1.84,3.56-6.49,5.26-13.16,1.86-7.24,2.8-16.81,2.8-28.45,0-14.3-2.11-24.42-6.42-31-4.14-6.24-9.56-9.27-16.58-9.27a6,6,0,0,1-5.65-3.88,6.42,6.42,0,0,1,1.37-6.88l15.81-16a5.77,5.77,0,0,1,4.11-1.75h.28a53.9,53.9,0,0,1,16.86,3.55,44.06,44.06,0,0,1,16.88,11.77c4.81,5.33,8.7,12.3,11.55,20.74s4.26,18.69,4.26,30.64a94.48,94.48,0,0,1-4.78,31.1m-52-176.14A24.49,24.49,0,0,0,105.43,0a24.06,24.06,0,0,0-4.93.51L72.17,6.33a24.55,24.55,0,0,0-19.52,24V41.36A124.7,124.7,0,1,0,129.14,18.5" fill="#231f20"/>
    </g>
  </g>
</svg>
