<svg width="63" height="58" viewBox="0 0 63 58" fill="none" xmlns="http://www.w3.org/2000/svg">
<path d="M51.3267 11.4743C50.5544 12.0922 49.7219 12.625 48.8426 13.0639C48.4088 13.2738 47.9621 13.4542 47.5056 13.604L47.1637 13.7137L46.8256 13.7953C46.5992 13.8512 46.3701 13.8945 46.1392 13.9251C45.2048 14.0577 44.2551 14.0193 43.3335 13.8116C42.4181 13.6215 41.5496 13.241 40.7805 12.6932L40.4875 12.4703C40.3875 12.3986 40.3053 12.3079 40.2124 12.2282C40.0312 12.0649 39.8615 11.8885 39.7045 11.7003C39.662 11.6566 39.6238 11.6086 39.5906 11.557L39.4844 11.4077C39.4097 11.3109 39.3406 11.2097 39.2776 11.1044C39.1529 10.8944 39.0393 10.6776 38.9372 10.455C38.8418 10.233 38.7655 10.0027 38.7092 9.76675C38.6491 9.53666 38.6102 9.3012 38.5929 9.06352C38.5536 8.61315 38.6214 8.15965 38.7905 7.74266C39.0444 7.18206 39.4604 6.71703 39.9809 6.41195C40.2578 6.23887 40.5533 6.09971 40.8613 5.99727C40.9382 5.96826 41.0181 5.94719 41.0964 5.92182C41.1762 5.90142 41.257 5.88568 41.3372 5.86694C41.4966 5.8239 41.6587 5.79263 41.8224 5.77338C41.9871 5.75918 42.1503 5.72849 42.3163 5.72487L42.8153 5.72221L43.3149 5.7705C43.4818 5.78421 43.6453 5.83222 43.811 5.86017C44.4733 6.00854 45.1096 6.26158 45.6974 6.6104C46.8748 7.30141 47.8065 8.36578 48.3551 9.64651L48.5192 10.1289C48.5474 10.21 48.5708 10.2927 48.589 10.3768C48.6085 10.4609 48.6343 10.5436 48.6493 10.6288C48.72 10.9673 48.7628 11.3114 48.7772 11.6575C48.7991 12.3562 48.7178 13.0543 48.536 13.7276C48.1459 15.1076 47.4608 16.3791 46.5314 17.4478C45.6082 18.5461 44.505 19.4671 43.2726 20.1688C41.9971 20.8549 40.6531 21.3947 39.2643 21.7787C37.8579 22.1767 36.4108 22.4729 34.9414 22.754C33.1322 23.1155 31.3043 23.4437 29.4526 23.9468C28.4806 24.2004 27.5477 24.5939 26.6813 25.1157C26.2305 25.3968 25.8145 25.7338 25.4426 26.1192C25.0757 26.5051 24.7506 26.9313 24.4731 27.3902C24.2079 27.8411 23.9805 28.3147 23.7934 28.8058C23.6161 29.2863 23.4676 29.7777 23.3488 30.2771C23.1233 31.25 22.9741 32.2401 22.9027 33.2379C22.7487 35.1889 22.7421 37.1085 22.6381 38.9924C22.5395 40.8735 22.3297 42.7274 21.8109 44.4659C21.5496 45.3367 21.2229 46.185 20.8336 47.0029C20.0457 48.6394 19.0082 50.1338 17.761 51.4286C17.1375 52.0712 16.4675 52.6635 15.7567 53.2004C15.0448 53.731 14.2916 54.1997 13.5048 54.6016L12.9107 54.8916L12.3017 55.1476C12.1008 55.2384 11.8905 55.3045 11.6838 55.3797C11.4764 55.4532 11.2703 55.5308 11.0576 55.5876C10.0385 55.9012 8.99605 56.1267 7.9409 56.2616C6.88666 56.3907 5.82324 56.4198 4.76388 56.3486C4.51104 56.3402 4.27152 56.3103 4.04111 56.2906C3.81071 56.2709 3.5898 56.2564 3.38129 56.2266C3.17197 56.2018 2.97162 56.181 2.78022 56.1642C2.5907 56.1381 2.41032 56.1138 2.23765 56.0948C1.89039 56.0639 1.58491 56.0144 1.30533 55.9915C1.0243 55.9724 0.779953 55.9453 0.560146 55.9372C-0.0802842 55.9134 -0.169334 56.108 0.281647 56.4674C0.421562 56.576 0.567745 56.6757 0.719379 56.7659C0.901138 56.8661 1.11743 56.97 1.36556 57.0818C1.97885 57.3417 2.61455 57.5409 3.26415 57.6766C4.26712 57.8836 5.28679 57.9919 6.30947 57.9999C7.34937 58.0029 8.38723 57.9046 9.40932 57.7063C11.7286 57.2664 13.9376 56.3439 15.9024 54.9947C17.8487 53.6447 19.5257 51.9195 20.8418 49.9133C22.1653 47.9144 23.0901 45.6622 23.562 43.2887C24.028 40.9269 24.1063 38.5512 24.2211 36.2358C24.2873 34.9604 24.3572 33.656 24.5188 32.4201C24.5972 31.811 24.7087 31.2069 24.8527 30.6108C24.9928 30.0451 25.1794 29.493 25.4105 28.9603C25.7523 28.1513 26.274 27.4375 26.9332 26.877C27.6364 26.331 28.4315 25.9248 29.2779 25.6791C30.1827 25.4077 31.1002 25.1837 32.0268 25.008C32.9659 24.817 33.9154 24.6461 34.8706 24.4711C36.813 24.1416 38.7324 23.6806 40.6166 23.0912C41.5745 22.7784 42.5076 22.3896 43.4077 21.9282C45.7077 20.7597 47.6236 18.9152 48.9158 16.6254C49.711 15.2325 50.1447 13.6503 50.1748 12.0327C50.1776 11.2133 50.0542 10.3988 49.8092 9.61974C49.566 8.83437 49.1886 8.10053 48.695 7.45307C48.2147 6.80711 47.6413 6.24151 46.9947 5.77614C46.3493 5.31587 45.6454 4.95036 44.9031 4.69003C44.2358 4.461 43.5423 4.32404 42.8404 4.28268C42.1295 4.25475 41.4184 4.33241 40.7288 4.51329C40.0267 4.70735 39.363 5.02757 38.7679 5.45936C38.4587 5.68771 38.1788 5.95598 37.9352 6.25768C37.685 6.57068 37.4818 6.92091 37.3324 7.29658C37.0504 8.03764 36.9567 8.8412 37.0603 9.63044C37.1049 10.0102 37.1874 10.3842 37.3063 10.7464C37.3637 10.9265 37.4299 11.1035 37.5046 11.2767C37.575 11.4526 37.6695 11.6109 37.7521 11.7783L37.881 12.0258C37.9231 12.1089 37.9802 12.1821 38.0293 12.2605C38.1323 12.4142 38.2326 12.5704 38.3398 12.7208C38.7892 13.3002 39.3141 13.8123 39.8994 14.2424C40.1928 14.4467 40.4976 14.6329 40.8121 14.8003C41.1236 14.9677 41.4445 15.1158 41.7729 15.2439C41.9358 15.31 42.104 15.3577 42.2695 15.4148L42.5188 15.4967C42.6027 15.5203 42.6876 15.5394 42.7721 15.5608C43.4451 15.7362 44.1341 15.8379 44.8276 15.8642C45.5209 15.8877 46.2147 15.8411 46.8993 15.7251C47.5753 15.5925 48.239 15.4001 48.8832 15.1498C50.1423 14.6428 51.3267 13.9561 52.4022 13.1098C52.9348 12.6992 53.447 12.2608 53.9366 11.7964C54.4276 11.338 54.8945 10.8574 55.3454 10.3647C56.7876 8.78762 57.9766 7.1173 59.0979 5.53056C60.2201 3.94259 61.2563 2.41078 62.3617 1.03486C62.8719 0.405102 63.0946 0.0766144 62.9628 0.00878525C62.9029 -0.0177345 62.7486 0.0139122 62.5153 0.129253C62.3729 0.197033 62.2346 0.273712 62.1012 0.358852C61.9193 0.469502 61.7437 0.590942 61.5754 0.722565C61.3088 0.934147 61.0414 1.14955 60.7796 1.37307C60.6438 1.48072 60.5271 1.60714 60.4031 1.72661C60.2811 1.84798 60.156 1.96828 60.0359 2.09207C59.5513 2.58561 59.0789 3.09325 58.6185 3.615C57.7046 4.66041 56.8297 5.73641 55.9543 6.77611C55.2324 7.63044 54.5178 8.48212 53.7591 9.28343C53.0169 10.0829 52.2156 10.8213 51.3624 11.4918C51.3507 11.4856 51.3398 11.4799 51.3267 11.4743Z" fill="black"/>
</svg>
