<svg width="157" height="37" viewBox="0 0 157 37" fill="none" xmlns="http://www.w3.org/2000/svg">
<path d="M1.78356 29V13.9909H4.79143L5.07861 16.8174L4.14149 15.9256C4.867 15.2102 5.65298 14.666 6.49942 14.2932C7.35593 13.9203 8.28801 13.7339 9.29568 13.7339C11.311 13.7339 12.7872 14.3688 13.7243 15.6384C14.6615 16.9081 15.13 18.5858 15.13 20.6717V29H11.7594V20.8531C11.7594 19.3819 11.5025 18.3037 10.9885 17.6185C10.4746 16.9232 9.6282 16.5755 8.44924 16.5755C7.53227 16.5755 6.75133 16.7871 6.10643 17.2104C5.46152 17.6336 4.95769 18.2432 4.59494 19.0393L5.15419 17.2557V29H1.78356ZM21.8921 29.3023C21.0456 29.3023 20.2849 29.1209 19.6097 28.7582C18.9346 28.3954 18.4005 27.8815 18.0075 27.2164C17.6246 26.5514 17.4332 25.7654 17.4332 24.8585C17.4332 24.0121 17.6246 23.2866 18.0075 22.682C18.4005 22.0673 18.9144 21.5584 19.5493 21.1554C20.1942 20.7523 20.8945 20.4349 21.6502 20.2031C22.4161 19.9613 23.1819 19.7849 23.9477 19.6741C24.7236 19.5633 25.429 19.5028 26.0638 19.4927C26.0336 18.4246 25.7867 17.689 25.3232 17.2859C24.8697 16.8728 24.1492 16.6662 23.1617 16.6662C22.5269 16.6662 21.8921 16.7569 21.2572 16.9383C20.6224 17.1197 19.9019 17.4371 19.0958 17.8905L18.7482 15.1396C19.5442 14.6962 20.3907 14.3536 21.2875 14.1118C22.1944 13.8599 23.1214 13.7339 24.0686 13.7339C25.2476 13.7339 26.2351 13.9405 27.0311 14.3536C27.8272 14.7668 28.4268 15.447 28.8298 16.3942C29.243 17.3414 29.4495 18.606 29.4495 20.188V23.876C29.4495 24.6116 29.4848 25.1709 29.5553 25.5538C29.6259 25.9367 29.7619 26.1987 29.9634 26.3398C30.175 26.4808 30.4925 26.5514 30.9157 26.5514H31.3238L30.961 29.3023H30.0239C29.3387 29.3023 28.7694 29.2217 28.3159 29.0605C27.8625 28.9093 27.4896 28.6927 27.1974 28.4105C26.9153 28.1284 26.6734 27.7908 26.4719 27.3978C25.958 27.9823 25.2929 28.4458 24.4767 28.7884C23.6706 29.131 22.809 29.3023 21.8921 29.3023ZM23.071 26.6874C23.5446 26.6874 24.0636 26.5665 24.6279 26.3247C25.1922 26.0727 25.6758 25.7201 26.0789 25.2666V21.7902C25.1116 21.8204 24.2399 21.9464 23.464 22.1681C22.6881 22.3797 22.0735 22.6971 21.62 23.1203C21.1766 23.5334 20.9549 24.0625 20.9549 24.7074C20.9549 25.3825 21.1313 25.8813 21.484 26.2037C21.8467 26.5262 22.3757 26.6874 23.071 26.6874ZM33.4009 29V13.9909H36.2123L36.5599 16.4395L35.8495 15.8349C36.5448 15.1799 37.3056 14.666 38.1319 14.2932C38.9682 13.9203 39.9003 13.7339 40.9281 13.7339C41.704 13.7339 42.4094 13.8549 43.0442 14.0967C43.6891 14.3285 44.2484 14.6912 44.722 15.185C45.2057 15.6787 45.5936 16.3085 45.8858 17.0743L45.0243 16.8174C45.4979 15.85 46.1982 15.0943 47.1252 14.5501C48.0523 14.006 49.1708 13.7339 50.4808 13.7339C51.821 13.7339 52.9243 14.001 53.7909 14.535C54.6575 15.059 55.2974 15.8248 55.7105 16.8325C56.1337 17.8402 56.3454 19.0544 56.3454 20.4752V29H52.9596V20.6566C52.9596 19.2559 52.7228 18.2281 52.2492 17.5731C51.7756 16.9081 50.9896 16.5755 49.8913 16.5755C49.2565 16.5755 48.7224 16.6813 48.2891 16.8929C47.8558 17.0945 47.5132 17.3817 47.2613 17.7545C47.0094 18.1273 46.828 18.5506 46.7171 19.0242C46.6164 19.4978 46.566 20.0016 46.566 20.5356V29H43.1803V20.8531C43.1803 19.8152 43.0644 18.9838 42.8326 18.3591C42.6009 17.7343 42.2532 17.2809 41.7897 16.9988C41.3262 16.7166 40.7518 16.5755 40.0666 16.5755C39.1496 16.5755 38.3687 16.7871 37.7238 17.2104C37.0889 17.6235 36.5851 18.2231 36.2123 19.009L36.7715 17.1952V29H33.4009ZM63.1038 29.3023C62.2574 29.3023 61.4966 29.1209 60.8215 28.7582C60.1464 28.3954 59.6123 27.8815 59.2193 27.2164C58.8364 26.5514 58.6449 25.7654 58.6449 24.8585C58.6449 24.0121 58.8364 23.2866 59.2193 22.682C59.6123 22.0673 60.1262 21.5584 60.761 21.1554C61.4059 20.7523 62.1063 20.4349 62.862 20.2031C63.6278 19.9613 64.3937 19.7849 65.1595 19.6741C65.9354 19.5633 66.6407 19.5028 67.2756 19.4927C67.2453 18.4246 66.9985 17.689 66.5349 17.2859C66.0815 16.8728 65.361 16.6662 64.3735 16.6662C63.7387 16.6662 63.1038 16.7569 62.469 16.9383C61.8342 17.1197 61.1137 17.4371 60.3076 17.8905L59.9599 15.1396C60.756 14.6962 61.6024 14.3536 62.4993 14.1118C63.4061 13.8599 64.3332 13.7339 65.2804 13.7339C66.4594 13.7339 67.4469 13.9405 68.2429 14.3536C69.039 14.7668 69.6385 15.447 70.0416 16.3942C70.4547 17.3414 70.6613 18.606 70.6613 20.188V23.876C70.6613 24.6116 70.6966 25.1709 70.7671 25.5538C70.8376 25.9367 70.9737 26.1987 71.1752 26.3398C71.3868 26.4808 71.7042 26.5514 72.1275 26.5514H72.5356L72.1728 29.3023H71.2357C70.5505 29.3023 69.9811 29.2217 69.5277 29.0605C69.0742 28.9093 68.7014 28.6927 68.4092 28.4105C68.127 28.1284 67.8852 27.7908 67.6837 27.3978C67.1698 27.9823 66.5047 28.4458 65.6885 28.7884C64.8824 29.131 64.0208 29.3023 63.1038 29.3023ZM64.2828 26.6874C64.7564 26.6874 65.2754 26.5665 65.8396 26.3247C66.4039 26.0727 66.8876 25.7201 67.2907 25.2666V21.7902C66.3233 21.8204 65.4517 21.9464 64.6758 22.1681C63.8999 22.3797 63.2852 22.6971 62.8318 23.1203C62.3884 23.5334 62.1667 24.0625 62.1667 24.7074C62.1667 25.3825 62.3431 25.8813 62.6957 26.2037C63.0585 26.5262 63.5875 26.6874 64.2828 26.6874ZM74.6127 29V13.9909H77.6205L77.9077 16.8174L76.9706 15.9256C77.6961 15.2102 78.4821 14.666 79.3285 14.2932C80.185 13.9203 81.1171 13.7339 82.1248 13.7339C84.1401 13.7339 85.6163 14.3688 86.5535 15.6384C87.4906 16.9081 87.9592 18.5858 87.9592 20.6717V29H84.5885V20.8531C84.5885 19.3819 84.3316 18.3037 83.8177 17.6185C83.3038 16.9232 82.4573 16.5755 81.2784 16.5755C80.3614 16.5755 79.5804 16.7871 78.9355 17.2104C78.2906 17.6336 77.7868 18.2432 77.4241 19.0393L77.9833 17.2557V29H74.6127ZM97.3965 29.3023C95.9656 29.3023 94.7313 28.9496 93.6934 28.2443C92.6656 27.5389 91.8745 26.5967 91.3203 25.4178C90.7661 24.2388 90.489 22.944 90.489 21.5332C90.489 20.1326 90.756 18.8428 91.2901 17.6638C91.8242 16.4748 92.6051 15.5225 93.6329 14.8071C94.6708 14.0917 95.9253 13.7339 97.3965 13.7339C98.4646 13.7339 99.4068 13.9304 100.223 14.3234C101.049 14.7063 101.755 15.2605 102.339 15.9861L101.553 16.636V6.32762H104.924V29H101.795L101.493 26.2189L102.445 26.899C101.83 27.6648 101.115 28.2594 100.299 28.6826C99.4824 29.0957 98.515 29.3023 97.3965 29.3023ZM97.9255 26.4607C98.7014 26.4607 99.3766 26.2692 99.9509 25.8863C100.525 25.5034 100.974 24.9442 101.296 24.2086C101.619 23.473 101.78 22.5812 101.78 21.5332C101.78 20.5054 101.619 19.6237 101.296 18.8881C100.974 18.1424 100.525 17.5731 99.9509 17.1801C99.3766 16.7771 98.7014 16.5755 97.9255 16.5755C97.0892 16.5755 96.3738 16.7871 95.7792 17.2104C95.1847 17.6336 94.7262 18.218 94.4038 18.9637C94.0914 19.7094 93.9352 20.5659 93.9352 21.5332C93.9352 22.4704 94.0914 23.3118 94.4038 24.0574C94.7262 24.8031 95.1847 25.3926 95.7792 25.8259C96.3738 26.2491 97.0892 26.4607 97.9255 26.4607ZM112.328 29.3023C111.411 29.3023 110.665 29.126 110.091 28.7733C109.527 28.4206 109.114 27.9571 108.852 27.3827C108.59 26.7983 108.459 26.1634 108.459 25.4782V6.32762H111.844V23.9365C111.844 24.7527 111.895 25.3472 111.995 25.7201C112.096 26.0828 112.288 26.3146 112.57 26.4153C112.862 26.506 113.295 26.5514 113.87 26.5514L113.507 29.3023H112.328ZM119.46 29.3023C118.614 29.3023 117.853 29.1209 117.178 28.7582C116.503 28.3954 115.969 27.8815 115.576 27.2164C115.193 26.5514 115.001 25.7654 115.001 24.8585C115.001 24.0121 115.193 23.2866 115.576 22.682C115.969 22.0673 116.482 21.5584 117.117 21.1554C117.762 20.7523 118.462 20.4349 119.218 20.2031C119.984 19.9613 120.75 19.7849 121.516 19.6741C122.292 19.5633 122.997 19.5028 123.632 19.4927C123.602 18.4246 123.355 17.689 122.891 17.2859C122.438 16.8728 121.717 16.6662 120.73 16.6662C120.095 16.6662 119.46 16.7569 118.825 16.9383C118.19 17.1197 117.47 17.4371 116.664 17.8905L116.316 15.1396C117.112 14.6962 117.959 14.3536 118.855 14.1118C119.762 13.8599 120.689 13.7339 121.637 13.7339C122.816 13.7339 123.803 13.9405 124.599 14.3536C125.395 14.7668 125.995 15.447 126.398 16.3942C126.811 17.3414 127.018 18.606 127.018 20.188V23.876C127.018 24.6116 127.053 25.1709 127.123 25.5538C127.194 25.9367 127.33 26.1987 127.531 26.3398C127.743 26.4808 128.06 26.5514 128.484 26.5514H128.892L128.529 29.3023H127.592C126.907 29.3023 126.337 29.2217 125.884 29.0605C125.43 28.9093 125.058 28.6927 124.765 28.4105C124.483 28.1284 124.241 27.7908 124.04 27.3978C123.526 27.9823 122.861 28.4458 122.045 28.7884C121.239 29.131 120.377 29.3023 119.46 29.3023ZM120.639 26.6874C121.113 26.6874 121.632 26.5665 122.196 26.3247C122.76 26.0727 123.244 25.7201 123.647 25.2666V21.7902C122.68 21.8204 121.808 21.9464 121.032 22.1681C120.256 22.3797 119.641 22.6971 119.188 23.1203C118.745 23.5334 118.523 24.0625 118.523 24.7074C118.523 25.3825 118.699 25.8813 119.052 26.2037C119.415 26.5262 119.944 26.6874 120.639 26.6874Z" fill="#1F2937"/>
<path d="M139 15.0741L146.508 7.26695C146.85 6.91102 147.41 6.91102 147.752 7.26695L155.558 15.3844" stroke="#1F2937" stroke-width="2.6728" stroke-miterlimit="10" stroke-linecap="round"/>
<path d="M139 21.4628L146.508 13.6556C146.85 13.2996 147.41 13.2996 147.752 13.6556L155.558 21.7731" stroke="#1F2937" stroke-width="2.6728" stroke-miterlimit="10" stroke-linecap="round"/>
<path d="M147.08 19.8413L142.251 24.6703C142.159 24.7625 142.159 24.9119 142.251 25.0041L147.08 29.8331C147.172 29.9253 147.322 29.9253 147.414 29.8331L152.243 25.0041C152.335 24.9119 152.335 24.7625 152.243 24.6703L147.414 19.8413C147.322 19.7491 147.172 19.7491 147.08 19.8413Z" stroke="#1F2937" stroke-width="2.6728" stroke-miterlimit="10" stroke-linecap="round"/>
</svg>
