<svg width="70" height="63" viewBox="0 0 70 63" fill="none" xmlns="http://www.w3.org/2000/svg">
<path d="M66.8855 15.2064C69.6721 18.0426 70.9707 23.2528 69.1716 27.2485C67.6904 30.9309 65.8304 34.5819 63.3956 37.4965L62.9289 37.4965C63.6796 36.0549 64.6401 34.7856 65.3705 33.3362C66.1619 31.7771 66.8044 30.1239 67.4469 28.4864C68.8335 25.0548 69.3745 20.8083 67.6228 17.4315C67.3455 16.7029 67.0141 15.9899 66.8788 15.2064L66.8855 15.2064Z" fill="#353438"/>
<path d="M67.6295 17.4315C69.3745 20.8083 68.8401 25.0548 67.4536 28.4864C67.3386 28.3141 67.1019 27.9615 66.9802 27.7891C67.8391 24.7101 68.414 21.1452 67.2237 18.1053C67.3251 17.9329 67.528 17.6039 67.6362 17.4315L67.6295 17.4315Z" fill="#C4C6C5"/>
<path d="M66.8854 15.2065C67.0207 15.99 67.3521 16.7029 67.6294 17.4316C67.5279 17.6039 67.325 17.933 67.2168 18.1054C66.9125 17.4943 66.6216 16.8831 66.3037 16.2799C65.4583 15.4807 64.6805 12.7385 63.3684 13.5455C63.1587 13.4123 62.7461 13.1303 62.5364 12.9971C62.178 12.3233 62.3403 11.8924 63.0437 11.767C62.6311 11.0305 61.9615 10.5996 61.2852 10.2392C60.7509 9.60459 60.2233 8.9543 59.6755 8.32752C59.8987 8.32752 60.3586 8.32752 60.5818 8.32752C62.3944 10.8738 65.8168 12.0882 66.8854 15.2143L66.8854 15.2065Z" fill="#7B7B7D"/>
<path d="M67.2236 18.1051C68.414 21.145 67.8391 24.7099 66.9801 27.789C66.3579 29.4578 65.7153 31.1266 64.8969 32.6857C64.437 33.4144 63.9636 34.143 63.4969 34.8716L63.0031 34.7933C65.4313 29.4656 68.4546 22.9157 65.8168 16.9926C65.9385 16.8202 66.1888 16.4677 66.3105 16.2953C66.6284 16.8986 66.926 17.5097 67.2236 18.1208L67.2236 18.1051Z" fill="#2B272B"/>
<path d="M66.9733 27.7892C67.0951 27.9616 67.3318 28.3141 67.4468 28.4865C66.8042 30.124 66.1617 31.7771 65.3704 33.3363C65.2554 33.1717 65.0051 32.8427 64.8902 32.6781C65.7018 31.1268 66.3511 29.458 66.9733 27.7814L66.9733 27.7892Z" fill="#DBDFDB"/>
<path d="M65.8102 16.9772C68.448 22.8925 65.418 29.4502 62.9966 34.7779C62.2932 35.7102 61.6845 36.7366 61.0352 37.7238C60.839 37.8335 60.4468 38.0372 60.2506 38.1469L60.1559 37.7238C62.1782 34.1511 64.072 30.4452 65.1948 26.3476C66.3987 23.6838 66.1146 20.4637 64.9175 17.9017C64.5387 16.938 64.0179 16.0762 63.5106 15.1987C63.2063 14.4779 62.7261 13.8903 62.1038 13.5377C62.212 13.4045 62.4352 13.1303 62.5434 12.9893C62.7531 13.1225 63.1657 13.4045 63.3754 13.5377C64.2343 14.6424 65.1204 15.7158 65.817 16.9693L65.8102 16.9772Z" fill="#D1D2D3"/>
<path d="M63.3683 13.5454C64.6872 12.7384 65.4583 15.4727 66.3037 16.2797C66.182 16.4521 65.9317 16.8047 65.81 16.977C65.1066 15.7313 64.2205 14.6501 63.3683 13.5454Z" fill="#44444B"/>
<path d="M64.9175 17.9095C66.1214 20.4715 66.3987 23.6838 65.1948 26.3555C64.072 30.4531 62.1783 34.159 60.156 37.7316C60.041 37.5593 59.8245 37.2224 59.7096 37.0422C61.8604 33.0386 63.8894 28.7608 64.6402 24.0755C65.2962 22.8847 65.6615 20.9965 64.5252 20.1268C64.4846 19.7586 64.417 19.0221 64.3832 18.6617C64.5117 18.4737 64.789 18.0976 64.9175 17.9174L64.9175 17.9095Z" fill="#2F2C31"/>
<path d="M65.3772 33.3361C64.6467 34.7856 63.6863 36.0548 62.9356 37.4964C62.2998 38.5855 60.5886 39.4316 60.9538 40.9829C58.891 44.4929 55.2116 47.4545 52.2762 50.0243C51.5863 49.7814 51.2617 49.3505 51.7622 48.614C53.3381 47.5955 54.8666 46.4124 56.0841 44.8533C57.2948 42.9024 59.8987 41.6959 60.1828 39.1731C60.2031 38.9145 60.2369 38.4053 60.2504 38.1467C60.4466 38.037 60.8389 37.8333 61.035 37.7236C62.3133 38.4288 62.7732 35.7728 63.4902 34.8561C63.9636 34.1274 64.4303 33.4066 64.8902 32.6702C65.0052 32.8347 65.2555 33.1638 65.3704 33.3283L65.3772 33.3361Z" fill="#8F9695"/>
<path d="M63.5107 15.2064C64.0179 16.0761 64.5387 16.9458 64.9175 17.9094C64.789 18.0975 64.5117 18.4657 64.3832 18.6537C63.9097 17.6979 63.4701 16.742 63.0102 15.7862C63.1319 15.6452 63.3889 15.3553 63.5107 15.2064Z" fill="#464953"/>
<path d="M64.5251 20.1189C65.6613 20.9886 65.3029 22.8768 64.64 24.0676C64.6062 23.0805 64.5521 21.1061 64.5251 20.1189Z" fill="#A09BA0"/>
<path d="M64.3829 18.6538C64.4167 19.022 64.4843 19.7585 64.5249 20.1189C64.552 21.1061 64.6128 23.0805 64.6399 24.0676C63.8891 28.7529 61.8601 33.0307 59.7093 37.0343C59.5943 37.2066 59.3711 37.5279 59.2561 37.6924C59.1276 37.5357 58.8571 37.2145 58.7218 37.0578C60.9605 32.161 63.5645 27.0684 63.4698 21.3176C63.0234 18.3874 61.6436 15.8097 60.1218 13.475C59.6957 12.715 59.1479 12.0647 58.5933 11.4301C57.8966 10.5761 57.1729 9.76127 56.3545 9.0718C56.2396 8.95428 56.0028 8.73491 55.8946 8.62522C56.1178 8.49203 56.5507 8.21781 56.7739 8.07678C58.3971 10.0903 60.0339 12.0804 61.6707 14.0783C62.1306 14.6267 62.5635 15.2143 63.0099 15.7862C63.4698 16.7421 63.9162 17.6979 64.3829 18.6538Z" fill="#DBDCDE"/>
<path d="M62.1037 13.5455C62.7259 13.8981 63.2129 14.4857 63.5105 15.2065C63.382 15.3554 63.1317 15.6453 63.01 15.7863C62.5704 15.2143 62.1307 14.6267 61.6708 14.0783C61.779 13.9451 61.9955 13.6787 62.1037 13.5455Z" fill="#777380"/>
<path d="M60.1219 13.4751C61.6437 15.8177 63.0235 18.3875 63.4699 21.3177C63.5646 27.0685 60.9674 32.1533 58.7219 37.0579C58.4987 37.1911 58.0388 37.4575 57.8156 37.5907C59.9326 32.2473 63.2129 27.0058 62.5501 20.7693C62.2322 18.1368 60.1422 16.0136 60.1219 13.4751Z" fill="#363539"/>
<path d="M63.4902 34.8641C62.7733 35.773 62.3134 38.429 61.0351 37.7317C61.6776 36.7445 62.2863 35.7181 62.9965 34.7858L63.4902 34.8641Z" fill="#3C3B40"/>
<path d="M61.2849 10.2392C61.9613 10.5996 62.6309 11.0305 63.0435 11.7669C62.3468 11.8923 62.1845 12.3311 62.5362 12.997C62.428 13.1302 62.2048 13.4044 62.0966 13.5455C61.9883 13.6786 61.7719 13.9529 61.6637 14.0782C60.0269 12.0803 58.3834 10.0903 56.7669 8.07675C58.3563 7.52048 59.7361 9.94927 61.2849 10.2392Z" fill="#9C989E"/>
<path d="M62.9288 37.4966C63.3211 39.1184 61.6031 39.8235 60.9471 40.9831C60.5818 39.4318 62.293 38.5856 62.9288 37.4966Z" fill="#4B5050"/>
<path d="M60.1219 13.4749C60.1422 16.0134 62.2321 18.1366 62.55 20.7691C63.2061 27.0056 59.9258 32.2471 57.8155 37.5905C58.0387 37.4573 58.4987 37.183 58.7219 37.0577C58.8571 37.2144 59.1277 37.5356 59.2562 37.6923C57.7614 40.3875 54.4744 42.1582 54.2579 45.6055C53.4598 46.4595 52.6211 47.2665 51.7825 48.0734L51.2617 48.0029C51.9245 46.7964 53.4869 45.6446 52.8782 44.0385C53.2096 43.3569 53.568 42.6909 53.9739 42.072C54.1226 42.1503 54.4067 42.3149 54.5555 42.3932C56.0097 40.8811 56.1652 38.4836 56.9836 36.5406C57.3421 35.8198 57.403 35.0285 57.146 34.2528C58.661 29.646 60.6562 24.9137 59.5741 19.8368C58.7151 15.1202 55.8 11.1715 52.5535 8.35092C52.3506 7.3559 52.2356 6.34521 52.2356 5.33452C53.1216 6.39222 52.9255 8.78967 54.5826 8.80534C53.8792 6.90932 52.9593 5.13082 52.3168 3.21129L52.7632 3.13294C53.3043 4.10445 53.7845 5.11514 54.2647 6.13367C54.5352 7.16786 55.0898 8.0532 55.8947 8.62514C56.0097 8.73483 56.2464 8.9542 56.3546 9.07172C56.4561 10.1216 57.5585 12.6052 58.5933 11.43C59.148 12.0646 59.6958 12.7149 60.1219 13.4749Z" fill="#ADADB0"/>
<path d="M60.1558 37.7238L60.2505 38.1468C58.6678 39.894 56.7537 41.4766 55.5701 43.5764C55.6445 43.7644 55.7933 44.1405 55.8745 44.3285L56.0841 44.8456C54.8667 46.4047 53.3314 47.5878 51.7622 48.6063L51.7825 48.0736C52.6144 47.2587 53.4531 46.4518 54.258 45.6056C54.4744 42.1583 57.7615 40.3876 59.2562 37.6924C59.3712 37.5279 59.5944 37.1988 59.7094 37.0343C59.8244 37.2067 60.0408 37.5514 60.1558 37.7238Z" fill="#605F62"/>
<path d="M60.2505 38.1548C60.237 38.4133 60.2031 38.9226 60.1829 39.1811C58.7084 40.8578 57.0919 42.4013 55.8677 44.3443C55.7933 44.1563 55.6445 43.7802 55.5634 43.5921C56.747 41.4846 58.6611 39.902 60.2437 38.1626L60.2505 38.1548Z" fill="#BFC0BC"/>
<path d="M60.1829 39.1732C59.8989 41.696 57.2881 42.9026 56.0842 44.8535L55.8746 44.3364C57.0988 42.3933 58.7152 40.8499 60.1897 39.1732L60.1829 39.1732Z" fill="#44444A"/>
<path d="M57.7008 5.82837C58.5057 6.36114 59.5676 7.18379 59.6758 8.31984C58.9115 7.74006 57.4303 7.12895 57.7008 5.82837Z" fill="#7D7A7C"/>
<path d="M59.5672 19.8447C60.6494 24.9216 58.6542 29.6617 57.1391 34.2607C55.969 36.8149 55.7188 39.8939 53.9738 42.0799C53.568 42.6988 53.2095 43.3648 52.8781 44.0464C52.5129 44.7202 52.1409 45.3862 51.7215 46.0208C50.9843 45.2216 51.8365 44.4146 52.1747 43.6782C53.0742 42.072 54.3526 40.5991 54.6163 38.6404C54.0685 39.1496 53.6153 39.7764 53.1825 40.411C53.311 39.2515 53.5477 38.1154 53.8859 37.0107C54.0279 37.1439 54.312 37.4181 54.454 37.5592C56.4425 31.7614 59.3102 25.5327 57.9237 19.1395C57.6261 16.5227 57.2541 16.1701 56.8145 18.0662C55.6038 13.5925 52.4317 10.5134 50.4635 6.58031C50.5717 6.40794 50.7949 6.07105 50.9031 5.89868C51.4036 6.75268 51.7215 7.82605 52.5399 8.35881C55.7864 11.1872 58.7015 15.1281 59.5605 19.8447L59.5672 19.8447Z" fill="#D3D4D6"/>
<path d="M56.3545 9.0719C57.1662 9.76136 57.8966 10.584 58.5933 11.4302C57.5584 12.6054 56.4627 10.1218 56.3545 9.0719Z" fill="#7E7A84"/>
<path d="M57.9306 19.1397C59.3172 25.5329 56.4494 31.7616 54.461 37.5593C54.3189 37.4183 54.0348 37.1441 53.8928 37.0109C55.7866 31.0016 59.094 24.5222 56.8214 18.0663C57.2611 16.1703 57.6331 16.5307 57.9306 19.1397Z" fill="#504F53"/>
<path d="M57.1392 34.2606C57.3962 35.0363 57.3353 35.8276 56.9768 36.5484C56.1652 38.4914 56.0097 40.8889 54.5487 42.401C54.3999 42.3226 54.1159 42.1581 53.9671 42.0798C55.7121 39.8939 55.9623 36.8148 57.1324 34.2606L57.1392 34.2606Z" fill="#524F55"/>
<path d="M54.9747 16.8595C57.0579 22.1872 55.2182 28.079 53.9264 33.3518C53.967 28.2357 56.2666 22.7121 54.4675 17.5725C54.5892 17.3923 54.8462 17.0319 54.968 16.8517L54.9747 16.8595Z" fill="#505054"/>
<path d="M53.5206 13.4908C54.0685 14.5642 54.6163 15.6689 54.968 16.8598C54.8395 17.04 54.5893 17.4004 54.4675 17.5806C54.1564 16.233 53.0675 14.9246 53.5206 13.4908Z" fill="#7C807F"/>
<path d="M54.6167 38.6326C54.3529 40.5991 53.0746 42.0721 52.1751 43.6704C52.0533 43.5215 51.8098 43.2081 51.6881 43.0514C52.2562 42.2209 52.7635 41.3434 53.1828 40.4032C53.6157 39.7686 54.0689 39.134 54.6167 38.6326Z" fill="#636363"/>
<path d="M52.6484 16.9929C54.0282 23.8405 52.7634 31.0172 50.7276 37.5123L50.3285 37.6611C51.4107 31.2209 53.8929 24.5926 52.2629 17.9879C52.2629 17.7058 52.2629 17.1574 52.2561 16.8832L52.6484 16.985L52.6484 16.9929Z" fill="#414145"/>
<path d="M52.5064 36.8931C52.5876 35.7022 53.4601 34.8325 53.3654 36.6346C52.9122 38.9615 51.6069 40.881 50.7073 42.9886C49.9904 44.963 47.2308 46.4672 47.8734 48.661C47.8058 49.1938 47.7178 49.7265 47.6164 50.2515C46.3245 50.604 44.6539 52.8134 43.7747 50.6902C44.7486 48.3398 45.7632 45.6916 47.5826 44.109C47.1632 46.1774 45.5603 47.619 45.1477 49.703C48.3401 46.1695 51.0117 41.7429 52.5064 36.8931Z" fill="#7B7A7D"/>
<path d="M52.8781 44.0464C53.4868 45.6525 51.9244 46.8042 51.2616 48.0108C51.0249 48.0108 50.5582 47.9873 50.3214 47.9873C50.7949 47.3292 51.2819 46.7024 51.7215 46.0208C52.1408 45.3861 52.5061 44.7202 52.8781 44.0464Z" fill="#5A5A5C"/>
<path d="M50.342 11.9784C51.7623 12.801 52.0532 15.2847 52.6416 16.9927L52.2493 16.8908C51.113 15.9115 51.0522 13.467 50.342 11.9784Z" fill="#747979"/>
<path d="M52.1746 43.678C51.8431 44.4223 50.9909 45.2215 51.7214 46.0206C51.2818 46.6944 50.7948 47.3291 50.3213 47.9872C49.8682 48.1674 49.415 48.3476 48.9619 48.5278C49.3271 47.5954 50.7136 46.8198 50.0238 45.6916C50.4093 45.0178 50.8354 44.3675 51.2412 43.7094C51.3494 43.5448 51.5726 43.2236 51.6808 43.0591C51.8026 43.2158 52.0461 43.5292 52.1678 43.678L52.1746 43.678Z" fill="#979596"/>
<path d="M51.7621 48.6219C51.2616 49.3584 51.5862 49.7815 52.2761 50.0322C49.1108 53.0564 45.1879 54.9211 42.212 58.2352L41.9144 58.1177C41.7791 58.0237 41.5018 57.8356 41.3665 57.7495C42.0564 57.2089 42.7192 56.6448 41.4139 56.5351C42.3337 55.5949 43.2536 54.6547 44.1666 53.7302C43.5782 53.4952 43.5038 52.9311 43.5511 52.2964C42.5501 52.7822 41.6709 54.0123 40.5008 53.6127C39.6283 53.3698 40.1694 55.1483 39.8853 55.7359C39.6148 55.1326 39.3848 54.5059 39.1278 53.9026C39.2428 53.362 39.351 52.8214 39.4524 52.2886C39.8988 50.4709 40.0206 51.8655 40.1423 53.0172C40.6902 52.3278 40.9742 51.4424 41.3327 50.6198C41.3733 51.3876 41.4206 52.1554 41.468 52.9311C42.0902 52.4453 42.7125 51.9517 43.2738 51.3798C43.3956 51.2074 43.6391 50.8705 43.7608 50.706C44.6401 52.837 46.3107 50.6276 47.6025 50.2672C48.448 50.1654 48.6982 49.2957 48.962 48.5357C49.4151 48.3555 49.8683 48.1753 50.3215 47.9951C50.5514 47.9951 51.0249 48.0186 51.2616 48.0186L51.7824 48.0891L51.7621 48.6219Z" fill="#727676"/>
<path d="M51.2483 43.7017C50.8425 44.3599 50.4164 45.0102 50.0309 45.6839C49.3342 46.7025 48.5632 47.6427 47.8665 48.6612C47.224 46.4674 49.9835 44.9631 50.7004 42.9888C50.8357 43.169 51.113 43.5215 51.2483 43.7017Z" fill="#CCCDCA"/>
<path d="M50.8356 19.0846C51.3429 25.1958 50.2675 31.1737 48.8877 37.0185L48.4548 37.0969C49.1582 31.1111 51.052 25.2506 50.3824 19.0768L50.8356 19.0768L50.8356 19.0846Z" fill="#3B3A3D"/>
<path d="M50.0305 45.6918C50.7204 46.82 49.3339 47.5956 48.9687 48.528C48.7049 49.2879 48.4546 50.1576 47.6092 50.2595C47.7106 49.7267 47.7986 49.2018 47.8662 48.669C48.5628 47.6505 49.3339 46.7103 50.0305 45.6918Z" fill="#615F65"/>
<path d="M48.7591 5.35803C49.1513 6.47058 49.5977 7.56745 49.9697 8.68783C48.9011 8.12372 48.2044 6.65861 48.7591 5.35803Z" fill="#9B9BA0"/>
<path d="M48.0964 17.9642C49.0839 23.6131 48.2587 29.4579 47.0548 34.9814C46.906 34.7934 46.6017 34.4173 46.4529 34.2293C47.4877 29.0583 48.9824 23.3154 47.3727 18.0896C47.2577 16.8595 48.2182 16.5304 48.0964 17.9642Z" fill="#3D3B3F"/>
<path d="M47.3795 18.0895C48.9824 23.3154 47.4944 29.0583 46.4596 34.2293C45.6142 35.9451 45.0258 37.8646 45.2084 39.8703C44.9987 40.5755 44.762 41.2649 44.5185 41.9622C44.3156 42.4637 44.1194 42.9808 43.9301 43.4978C43.3484 44.7044 42.7938 45.9345 42.0498 47.0157L41.8875 46.3811C42.4827 44.9316 43.1996 43.5527 43.6663 42.0406C44.3223 38.0918 44.9175 34.1039 45.7359 30.1787C47.3186 23.6758 46.1688 17.071 44.3765 10.8345C44.2141 9.72979 43.9774 8.63292 43.7339 7.54388C43.7407 7.28533 43.7542 6.7604 43.7677 6.49402L44.1938 6.59587C45.5533 10.3017 46.3446 14.2505 47.3795 18.0817L47.3795 18.0895Z" fill="#E3E0E3"/>
<path d="M47.055 34.9893C47.0347 36.4936 46.7168 37.9666 46.2569 39.369C45.9931 39.4943 45.4723 39.7529 45.2086 39.8782C45.0259 37.8725 45.6076 35.953 46.4598 34.2372C46.6086 34.4252 46.913 34.8013 47.0618 34.9893L47.055 34.9893Z" fill="#908A8F"/>
<path d="M44.3695 10.8427C46.1619 17.0792 47.3117 23.6839 45.729 30.1868C45.9995 23.8563 45.4382 17.6276 44.1193 11.5008L44.3695 10.8427Z" fill="#747075"/>
<path d="M46.2563 39.369C45.7288 40.2074 45.6409 43.3648 44.5114 41.9624C44.7548 41.2729 44.9983 40.5756 45.2012 39.8705C45.465 39.7451 45.9858 39.4866 46.2496 39.3612L46.2563 39.369Z" fill="#6A6369"/>
<path d="M44.126 11.5006C45.4449 17.6196 46.0062 23.8562 45.7357 30.1867C45.5869 30.0065 45.3028 29.6539 45.154 29.4737C45.2555 25.7835 45.1811 22.0933 44.6197 18.458C44.1598 15.5434 43.3279 12.6994 43.1723 9.73781C43.9366 8.4059 43.781 10.913 44.126 11.5085L44.126 11.5006Z" fill="#E3E2E2"/>
<path d="M45.7359 30.1867C44.9243 34.1119 44.3291 38.0999 43.6663 42.0486C43.5513 41.8684 43.3078 41.5158 43.1861 41.3356C43.6866 37.3947 44.1262 33.4225 44.2615 29.4424L44.7214 29.4424L45.161 29.4737C45.3098 29.6539 45.5939 30.0065 45.7427 30.1867L45.7359 30.1867Z" fill="#565358"/>
<path d="M45.6411 44.0935C45.0053 46.632 43.4768 48.716 42.8478 51.2702C42.0497 51.3485 42.6381 50.189 42.5231 49.6876C43.4159 47.721 44.329 45.7231 45.6411 44.0935Z" fill="#787377"/>
<path d="M44.62 18.4579C45.1882 22.0932 45.2558 25.7834 45.1544 29.4736L44.7147 29.4501C44.5456 26.8725 45.1273 24.1616 44.3765 21.6702C44.2751 20.8553 44.1804 20.0484 44.0722 19.2335C44.2007 19.0455 44.478 18.6538 44.6133 18.4657L44.62 18.4579Z" fill="#312F30"/>
<path d="M43.1725 9.73779C43.3213 12.7072 44.16 15.5512 44.6199 18.4579C44.4846 18.646 44.2073 19.0377 44.0788 19.2258C44.0382 18.2386 43.416 15.6452 43.186 17.9957L42.7464 17.9408L42.3 17.8703C42.3406 17.651 42.4082 17.22 42.4488 17.0007C42.9357 14.7912 42.8005 12.5191 42.7734 10.2784C42.8749 10.1452 43.0778 9.87099 43.1792 9.73779L43.1725 9.73779Z" fill="#515054"/>
<path d="M44.3763 21.6624C45.1271 24.146 44.5454 26.8647 44.7145 29.4423L44.2546 29.4423C44.2546 26.8412 44.1937 24.24 44.3695 21.6624L44.3763 21.6624Z" fill="#B7B3B7"/>
<path d="M44.2005 0.492575C44.2411 2.52963 44.214 4.55885 44.187 6.60373L43.7609 6.50188C43.7609 4.51967 43.7338 2.52963 43.7473 0.547418L44.2005 0.484741L44.2005 0.492575Z" fill="#8E8989"/>
<path d="M43.7339 7.55189C43.9774 8.64093 44.2074 9.72997 44.3765 10.8425L44.1262 11.5006C43.7813 10.9052 43.9436 8.40589 43.1726 9.72997C43.0711 9.86316 42.8682 10.1374 42.7667 10.2706C41.9957 11.7043 42.503 13.7336 42.2527 15.3789C41.8807 12.9736 41.8875 10.537 41.8063 8.10033C41.9686 7.48921 42.158 6.89376 42.3677 6.30615C42.6382 7.08963 42.8006 7.90446 42.9764 8.71928C43.2334 8.33537 43.4904 7.9358 43.7339 7.54405L43.7339 7.55189Z" fill="#8C8C8A"/>
<path d="M44.0787 19.2256C44.1802 20.0404 44.2748 20.8474 44.3831 21.6622C44.2072 24.2399 44.2681 26.841 44.2681 29.4344C44.1396 33.4145 43.6932 37.3789 43.1927 41.3276C42.2728 43.4587 41.6844 46.0207 39.98 47.5328C40.095 46.4673 40.6428 45.5819 41.1027 44.6888C41.3868 44.1482 41.6371 43.5762 41.8264 42.9886C43.7067 34.9501 44.5657 26.2221 43.1859 17.9955C43.4159 15.6529 44.0449 18.2384 44.0787 19.2256Z" fill="#E4E4E4"/>
<path d="M43.9234 43.4978C44.478 45.6915 42.0363 47.423 42.5233 49.6873C42.6383 50.1887 42.0499 51.3482 42.848 51.2699L43.2741 51.3717C42.7127 51.9515 42.0905 52.4373 41.4682 52.923C41.4141 52.1552 41.3735 51.3874 41.3329 50.6118C40.9745 51.4344 40.6904 52.3198 40.1426 53.0092C40.014 51.8575 39.8991 50.4629 39.4527 52.2806C39.2295 52.5 38.7898 52.9387 38.5599 53.1502C38.4246 52.5626 38.5328 51.9594 38.5802 51.3796C38.8981 50.6744 40.0073 49.7578 39.0739 49.1075C37.7347 47.5719 40.1358 45.762 40.501 44.2421C40.6498 44.3596 40.9406 44.5711 41.0894 44.6887C40.6295 45.5818 40.0749 46.4593 39.9667 47.5327C41.6711 46.0284 42.2528 43.4664 43.1794 41.3275C43.3011 41.5077 43.5446 41.8603 43.6596 42.0405C43.1929 43.5526 42.476 44.9315 41.8808 46.381C41.1841 47.4308 40.1223 48.2927 39.9532 49.6951C40.873 49.0761 41.6102 48.1516 42.0363 47.0156C42.7736 45.9265 43.3349 44.7043 43.9166 43.4978L43.9234 43.4978Z" fill="#8F8788"/>
<path d="M44.167 53.7303C43.2539 54.6548 42.3341 55.595 41.4142 56.5351C42.7196 56.6448 42.0568 57.2089 41.3669 57.7495C41.1775 57.9219 40.7987 58.2745 40.6026 58.4468C40.4876 57.8592 40.3659 57.2716 40.2374 56.684C40.3659 55.6655 40.447 54.6391 40.4944 53.6128C41.6645 54.0202 42.5505 52.7823 43.5447 52.2965C43.4906 52.9311 43.565 53.4952 44.1602 53.7303L44.167 53.7303Z" fill="#A0A0A0"/>
<path d="M43.1795 17.9956C44.566 26.2222 43.7003 34.9502 41.82 42.9887L41.4007 43.1454C42.9495 35.2087 43.166 27.0292 42.679 18.9358C42.6925 18.6851 42.7263 18.1915 42.7399 17.9408L43.1795 17.9956Z" fill="#414042"/>
<path d="M42.7668 10.2783C42.787 12.5269 42.9291 14.7912 42.4421 17.0006C42.3948 16.5932 42.3001 15.7862 42.2527 15.3866C42.503 13.7413 41.9957 11.7121 42.7668 10.2783Z" fill="#CDCFD2"/>
<path d="M42.7463 17.9409C42.7328 18.1916 42.699 18.6852 42.6855 18.9359C42.5231 19.6881 42.4149 20.4559 42.3338 21.2237L41.9077 21.302C42.0091 20.448 42.1917 18.7244 42.2932 17.8625L42.7396 17.9331L42.7463 17.9409Z" fill="#828A86"/>
<path d="M42.6787 18.9358C43.1657 27.0292 42.9493 35.2087 41.4004 43.1454C40.3047 43.9837 40.4671 43.067 40.7444 42.0564C41.6642 38.3035 42.07 34.4174 42.327 30.5313C42.3067 30.1631 42.2729 29.4188 42.2594 29.0427C42.2729 27.3112 42.3067 25.5876 42.2594 23.8639C42.3 22.9786 42.3135 22.0932 42.3203 21.2157C42.4014 20.4479 42.5096 19.6801 42.672 18.928L42.6787 18.9358Z" fill="#D7D8D9"/>
<path d="M42.2392 3.35996C42.2798 4.23746 42.2798 5.10712 42.2798 5.99246C41.9957 5.16197 41.8199 3.79087 41.0218 4.95826C40.6498 5.31083 40.2913 5.67123 39.9396 6.04731L39.4797 6.04731C38.4516 4.53519 39.784 2.5373 41.2991 3.10925C41.3329 2.88204 41.4005 2.43545 41.4411 2.20041L41.8334 2.16907C41.9348 2.46679 42.131 3.06224 42.2324 3.35996L42.2392 3.35996Z" fill="#807E81"/>
<path d="M42.2797 5.99264L42.3677 6.31387C42.158 6.90148 41.9754 7.49692 41.8063 8.10804L41.4343 8.27257C41.2314 8.13154 40.8188 7.83382 40.6227 7.68496C40.785 6.77612 40.9068 5.85945 41.0285 4.95061C41.8266 3.78322 42.0024 5.15431 42.2865 5.9848L42.2797 5.99264Z" fill="#5E605F"/>
<path d="M42.2525 15.3868C42.2999 15.7942 42.3946 16.6012 42.4419 17.0007C42.4013 17.2201 42.3337 17.651 42.2931 17.8704C42.1916 18.7244 42.009 20.4481 41.9076 21.3099C41.8196 22.0699 41.7047 22.8377 41.5423 23.5898C40.866 22.3519 42.4825 18.27 40.4669 18.5442C40.5346 22.5556 41.0418 26.5357 40.981 30.5471C40.9742 33.54 40.0138 36.3919 39.9597 39.377C39.8176 39.1811 39.5336 38.7894 39.3915 38.5935C38.8099 37.0344 40.6563 32.8192 39.1075 32.1689C39.0398 35.4282 39.0534 38.8442 38.0253 41.939L37.5383 41.8371C37.8021 38.2801 38.2756 34.7153 38.1132 31.1348L37.6871 31.0407C37.7074 35.1383 37.2543 39.2203 36.5441 43.2239C36.2127 42.3229 36.2262 41.3279 36.1247 40.3798C36.1856 39.9959 36.3141 39.2203 36.3818 38.8285C37.0175 36.0707 36.5779 33.2737 36.1518 30.5393C36.2465 29.5991 36.4021 28.659 36.6591 27.7658L37.119 27.8128C37.1393 28.6981 37.1528 29.5913 37.2204 30.4766C39.0534 31.0094 36.5847 26.0656 38.1268 25.6739C38.1268 27.2722 38.0591 28.9018 38.147 30.5158C39.6418 30.649 38.1809 26.8256 38.5731 25.5407C38.6002 25.3135 38.6611 24.8669 38.6881 24.6397C38.8166 24.4517 39.0669 24.0599 39.1886 23.8719C39.5674 25.8776 39.351 27.8833 39.2901 29.9125C39.7297 31.1269 40.893 33.6341 40.0003 28.3926C39.9191 25.1333 40.3723 21.7408 39.5403 18.5755C40.0273 18.2465 40.5278 17.9566 41.0013 17.5962C42.0834 16.3191 40.8389 13.8747 41.0216 12.1745C41.1771 10.8818 41.3191 9.58118 41.4409 8.28843L41.8129 8.1239C41.894 10.5605 41.8873 12.9972 42.2593 15.4024L42.2525 15.3868Z" fill="#272727"/>
<path d="M42.3336 21.2236C42.3268 22.109 42.3133 22.9943 42.2727 23.8718C42.0495 25.5641 41.5219 27.421 42.2727 29.0506C42.2862 29.4267 42.32 30.171 42.3403 30.5392C42.1171 30.5392 41.6707 30.5392 41.4475 30.5471C41.4475 28.2201 41.4137 25.901 41.549 23.5819C41.7113 22.8298 41.8331 22.062 41.9142 21.302L42.3403 21.2236L42.3336 21.2236Z" fill="#484C4C"/>
<path d="M42.2731 23.8717C42.3137 25.5954 42.2799 27.3112 42.2731 29.0505C41.5291 27.4287 42.0567 25.564 42.2731 23.8717Z" fill="#2D3230"/>
<path d="M42.3335 30.5393C42.0765 34.4175 41.6707 38.3036 40.7508 42.0643C40.2909 38.1939 41.319 34.4019 41.4407 30.555C41.6639 30.555 42.1103 30.5471 42.3335 30.5471L42.3335 30.5393Z" fill="#2E2C2F"/>
<path d="M41.8267 42.9887C41.6373 43.5763 41.387 44.1483 41.103 44.6889C40.9542 44.5714 40.6633 44.3598 40.5145 44.2423C40.1493 45.7623 37.7482 47.5721 39.0874 49.1077C38.756 49.6013 38.6343 51.372 37.9917 50.2673C38.1676 48.7316 38.384 47.243 38.5396 45.7231C37.2139 46.4596 37.613 48.2302 37.525 49.7188C36.6052 47.2274 37.4304 44.4382 38.0255 41.931C39.0536 38.8363 39.0401 35.4203 39.1077 32.161C40.6498 32.8113 38.8101 37.0264 39.3918 38.5856C39.3242 39.3299 39.1956 40.8263 39.128 41.5785C39.8585 41.1005 40.0681 40.2857 39.9599 39.3612C40.014 36.3761 40.9745 33.5243 40.9812 30.5314L41.4411 30.5314C41.3126 34.3861 40.2846 38.1781 40.7513 42.0485C40.474 43.0514 40.3116 43.9759 41.4073 43.1376L41.8267 42.9809L41.8267 42.9887Z" fill="#A8A6A5"/>
<path d="M41.8877 46.3811L42.05 47.0157C41.6239 48.1518 40.88 49.0684 39.9669 49.6952C40.1292 48.3006 41.1978 47.4388 41.8945 46.3811L41.8877 46.3811Z" fill="#CCC4C3"/>
<path d="M41.3665 57.7417C41.5017 57.8357 41.779 58.0238 41.9143 58.1099C40.636 59.4184 39.5876 61.0637 38.1808 62.1919C38.032 61.9177 37.7344 61.3849 37.5856 61.1185C37.9306 60.8365 38.262 60.5544 38.5934 60.2567C39.3577 59.8023 40.0205 59.1598 40.6022 58.439C40.7983 58.2666 41.1771 57.9141 41.3665 57.7417Z" fill="#3C4042"/>
<path d="M41.4343 8.27267C41.3126 9.56542 41.1705 10.866 41.015 12.1587C40.9744 11.2499 40.9676 10.3411 40.8527 9.4479C39.1415 9.47924 39.4323 7.65372 39.4797 6.05542L39.9396 6.05542C40.1019 6.71354 39.6352 8.92297 40.6159 7.6929C40.8188 7.84176 41.2314 8.13165 41.4276 8.28051L41.4343 8.27267Z" fill="#8F9090"/>
<path d="M41.0151 12.1586C40.8257 13.8588 42.077 16.3033 40.9948 17.5803C40.5687 15.3396 40.1967 13.0832 39.9532 10.8032C40.3252 11.242 40.6769 11.6886 41.0151 12.1586Z" fill="#ACB1B2"/>
<path d="M40.4671 18.5363C42.4826 18.262 40.8661 22.344 41.5425 23.5819C41.414 25.901 41.441 28.2201 41.441 30.547L40.9811 30.547C41.042 26.5278 40.5415 22.5477 40.4671 18.5363Z" fill="#D9DDDB"/>
<path d="M41.0215 4.9585C40.9065 5.86733 40.778 6.78401 40.6157 7.69285C39.6282 8.92292 40.0949 6.7135 39.9393 6.04754C40.291 5.67147 40.6495 5.31106 41.0215 4.9585Z" fill="#323334"/>
<path d="M39.953 10.7954C40.1965 13.0753 40.5685 15.3317 40.9946 17.5725C40.5212 17.9329 40.0207 18.2306 39.5337 18.5518C38.4042 19.6644 39.2902 22.2263 39.182 23.8482C39.0535 24.0362 38.8032 24.4279 38.6815 24.616C38.2554 23.0803 39.439 18.8417 37.2476 18.4891C37.7549 21.5839 37.4032 24.6943 37.1191 27.7969L36.6592 27.7499C36.6592 27.3817 36.6592 26.6452 36.6592 26.2691C36.1316 24.2869 37.7008 20.2206 36.2669 19.0376C36.2331 21.1843 36.179 23.3311 36.1046 25.4778C35.9287 27.1388 35.7191 28.8311 35.7258 30.5234C35.7258 32.2863 35.7258 34.0726 35.9017 35.8433C35.8273 37.2849 35.7529 38.7265 35.6785 40.1838C35.55 40.9672 36.037 42.3775 34.8804 41.9858C35.1239 38.6716 35.4012 35.3418 35.2118 32.012C35.2253 31.6438 35.2659 30.8917 35.2794 30.5156C35.2862 29.5676 35.3065 27.6559 35.32 26.7C35.3133 23.9108 35.3809 21.1373 35.205 18.356C34.9751 17.0475 34.0349 19.0141 34.0011 19.6957C33.8591 19.3745 33.575 18.7164 33.433 18.3951C33.3653 22.4457 33.433 26.4885 33.4127 30.5313C33.1489 32.3881 33.0542 34.2841 32.6214 36.1096C32.3238 34.715 33.1286 32.1766 32.0059 31.5655C31.9991 33.0776 31.9788 36.1018 31.9653 37.6139L31.5121 37.6139C30.8155 36.0235 32.6484 31.6595 31.059 31.0562C31.0319 31.9023 30.9711 33.5947 30.944 34.4487C30.802 33.1638 30.6735 31.8788 30.545 30.5939C30.5652 26.606 30.6735 22.6181 30.5449 18.638C30.3285 18.591 29.8956 18.4813 29.6792 18.4343C29.6792 18.2071 29.6927 17.7605 29.6995 17.5333C31.6812 15.6059 30.173 12.1351 29.97 9.62013L30.1324 9.08736C30.4029 9.0952 30.9372 9.11086 31.2078 9.12653C31.1942 10.2547 31.059 11.383 31.0455 12.519C31.0252 14.1487 31.0049 15.8018 31.059 17.4471C31.2078 17.3453 31.5054 17.1572 31.6542 17.0632L31.9788 16.836C32.1411 16.5539 32.459 15.9977 32.6214 15.7156C32.831 16.3189 33.0272 16.93 33.2639 17.5255C33.318 17.0789 33.4195 16.1857 33.4736 15.747C34.2243 16.1544 33.6021 17.9564 34.9074 17.3923C35.8205 17.4158 35.0495 15.5824 35.1915 14.8381C35.2118 13.2476 35.4959 11.6258 34.921 10.1451C35.1239 8.01399 35.32 5.88292 35.3741 3.74402C35.4891 3.90072 35.7123 4.22194 35.8273 4.3708C35.7799 5.45201 35.7529 6.52538 35.7529 7.60658C35.7394 10.3566 35.7867 13.1145 35.7258 15.8645C35.5297 16.5383 36.064 17.6587 36.7471 17.2826C36.6727 16.6323 36.5239 15.3395 36.4428 14.6893C36.321 12.8324 36.2331 10.9834 36.294 9.12653C36.4901 9.86301 36.8756 11.3438 37.065 12.0803C37.6129 13.6159 36.2804 16.6871 38.1134 17.4393C39.1752 17.0554 38.438 14.5639 38.9317 13.4827C39.1549 14.9086 38.1742 17.9094 40.0072 17.4236C39.9666 15.5354 39.5608 13.6864 39.3376 11.8295C39.4864 11.571 39.7907 11.0382 39.9395 10.7797L39.953 10.7954ZM31.5324 18.0034L31.0793 18.0034C30.9778 22.1715 31.059 26.3475 31.0793 30.5156C31.2957 30.5391 31.7218 30.5783 31.9382 30.5939L32.459 30.5704L32.9257 30.5391C32.9528 26.7235 32.9663 22.9158 32.946 19.1081C33.3112 17.7918 32.3305 17.9329 31.5257 18.0112L31.5324 18.0034Z" fill="#1C1B1A"/>
<path d="M15.0564 9.35387C15.2526 7.95927 16.2198 6.3688 17.5454 6.41581C16.8082 7.49702 15.983 8.49204 15.0564 9.35387Z" fill="#8F8C8D"/>
<path d="M40.501 53.6126C40.4536 54.6389 40.3725 55.6653 40.244 56.6838C39.6014 57.812 38.5463 58.7836 38.5937 60.2643C38.4313 59.2693 37.5927 57.4125 37.4439 59.4965C37.3289 57.9766 37.2207 56.488 37.0651 54.9837C36.2332 56.0335 36.1453 57.4438 36.3008 58.7992C36.0641 59.4887 36.6931 61.1262 35.7665 61.1418C35.7597 59.473 35.7597 57.859 35.7597 56.2059C35.7597 55.7985 35.7665 54.9915 35.7733 54.5919C36.9095 54.4666 38.0188 54.1845 39.128 53.9103C39.385 54.5136 39.615 55.1404 39.8855 55.7437C40.1696 55.156 39.6285 53.3775 40.501 53.6204L40.501 53.6126Z" fill="#B7B5B5"/>
<path d="M40.2439 56.684C40.3724 57.2637 40.4942 57.8592 40.6091 58.4468C40.0275 59.1676 39.3579 59.8022 38.6004 60.2645C38.553 58.7837 39.6081 57.8122 40.2507 56.684L40.2439 56.684Z" fill="#7F7E7F"/>
<path d="M39.3512 11.8531C39.5744 13.71 39.9802 15.559 40.0208 17.4472C38.1811 17.933 39.1685 14.9401 38.9454 13.5063C39.0333 12.9422 39.1685 12.3859 39.3579 11.8531L39.3512 11.8531Z" fill="#949997"/>
<path d="M39.5338 18.5598C40.3657 21.7329 39.9125 25.1254 39.9937 28.3768C40.8865 33.6105 39.7232 31.1112 39.2835 29.8968C39.3444 27.8754 39.5676 25.8619 39.1821 23.8562C39.2903 22.2343 38.3975 19.6724 39.5338 18.5598Z" fill="#9B9F9A"/>
<path d="M39.96 39.369C40.0614 40.2935 39.8585 41.1084 39.128 41.5863C39.1957 40.8341 39.3242 39.3377 39.3918 38.5934C39.5406 38.7893 39.8179 39.181 39.96 39.3769L39.96 39.369Z" fill="#434043"/>
<path d="M39.0872 49.1076C40.0206 49.7579 38.9114 50.6824 38.5935 51.3797C37.9374 51.6069 37.4302 52.1475 37.1867 52.8997C37.0852 53.0564 36.8823 53.3698 36.7741 53.5186C37.4572 48.4808 35.8678 51.035 36.1924 52.8605C35.1103 53.1426 36.4359 50.4082 35.3335 50.7608C35.2861 51.1917 35.2049 52.0535 35.1576 52.4844C34.9682 51.6853 34.8194 50.8783 34.6842 50.0635C34.7247 49.2487 34.7856 47.6034 34.8262 46.7885C33.7373 47.431 34.7586 49.5464 33.5614 50.2437C33.5073 50.0165 33.3923 49.5699 33.3382 49.3348C33.6561 46.9531 34.9817 44.2344 34.0078 41.8291C34.0754 39.9174 34.3122 38.0135 34.4542 36.1018C34.6774 34.7229 34.7856 33.3361 35.2185 32.0199C35.4011 35.3497 35.1238 38.6717 34.8871 41.9936C36.0436 42.3775 35.5634 40.9751 35.6852 40.1916L36.1451 40.3718C36.2465 41.3198 36.233 42.3227 36.5644 43.2159C37.1123 45.3626 37.2543 42.7379 37.5587 41.8291L38.0456 41.9309C37.4504 44.4381 36.6253 47.2194 37.5451 49.7188C37.6601 49.8519 37.8968 50.1262 38.0118 50.2672C38.6544 51.3719 38.7761 49.6012 39.1075 49.1076L39.0872 49.1076Z" fill="#7C7877"/>
<path d="M39.4592 52.2886C39.3578 52.8214 39.2496 53.362 39.1346 53.9026C38.0254 54.1768 36.9094 54.4588 35.7799 54.5842C35.1847 54.6469 34.5895 54.7644 34.001 54.8976C33.7305 54.8349 33.1894 54.7017 32.9189 54.6312L32.4454 54.5294C31.343 54.2238 30.227 53.9417 29.1516 53.5265C29.111 53.2601 29.0366 52.7195 29.0028 52.4531L29.2395 51.9752C29.3883 52.1006 29.6994 52.3434 29.8482 52.4688C30.4367 54.0123 30.6193 53.1191 30.6463 51.8028C31.0589 52.3826 31.4444 52.9859 31.8908 53.5343C31.9314 53.1034 32.0193 52.2338 32.0599 51.8028C32.3305 52.1711 32.601 52.5471 32.8715 52.9232C32.8986 52.5001 32.9527 51.6697 32.9797 51.2544C33.8117 51.2936 32.9865 53.0251 33.8725 52.8684C34.5759 53.1269 34.9953 53.0094 35.1508 52.5001C35.1982 52.0692 35.2794 51.2074 35.3267 50.7765C36.4359 50.4239 35.1035 53.1583 36.1857 52.8762C35.8678 51.0507 37.4505 48.5044 36.7673 53.5343C36.8688 53.3855 37.0785 53.0721 37.1799 52.9154C37.5587 53.2288 38.1674 53.738 38.5664 53.1661C38.7896 52.9467 39.236 52.508 39.4592 52.2964L39.4592 52.2886Z" fill="#3F3F45"/>
<path d="M38.9249 6.13391C39.2225 7.05842 39.2901 8.24932 38.8843 9.15032C38.1335 9.68309 38.2418 8.60188 38.492 8.14746C38.6949 7.57552 38.262 6.27494 38.9181 6.13391L38.9249 6.13391Z" fill="#90918F"/>
<path d="M29.0706 17.0476C29.0842 17.2748 29.1112 17.7371 29.1248 17.9643C28.7798 17.9643 28.0967 17.9878 27.7518 17.9957C27.0145 14.8852 27.6909 11.7983 27.7856 8.68005C27.9208 8.79758 28.1914 9.04829 28.3199 9.16581C28.3131 9.87878 28.3199 10.5918 28.3267 11.3047C28.6175 13.0362 27.143 16.4052 29.0639 17.0476L29.0706 17.0476Z" fill="#1B191B"/>
<path d="M37.2412 18.5049C39.4326 18.8575 38.2489 23.0961 38.675 24.6317C38.648 24.8589 38.5871 25.3055 38.5601 25.5327L38.1204 25.6659C36.5784 26.0655 39.047 31.0093 37.2141 30.4687C37.1465 29.5833 37.133 28.6902 37.1127 27.8048C37.3967 24.7022 37.7484 21.5997 37.2412 18.4971L37.2412 18.5049Z" fill="#93968F"/>
<path d="M38.5666 25.525C38.1743 26.8099 39.6352 30.6333 38.1405 30.5001C38.0526 28.894 38.1202 27.2565 38.1202 25.6582L38.5598 25.525L38.5666 25.525Z" fill="#B2B5AE"/>
<path d="M38.5396 45.731C38.3772 47.2509 38.1676 48.7395 37.9917 50.2752C37.8767 50.1341 37.64 49.8599 37.525 49.7267C37.6129 48.2459 37.2207 46.4674 38.5396 45.731Z" fill="#5E5659"/>
<path d="M38.5867 51.3876C38.5326 51.9752 38.4243 52.5706 38.5664 53.1582C38.1741 53.7302 37.5654 53.2209 37.1799 52.9075C37.4233 52.1554 37.9306 51.6148 38.5867 51.3876Z" fill="#646065"/>
<path d="M38.5935 60.2566C38.2621 60.5543 37.9307 60.8363 37.5857 61.1184L37.1732 61.3064C37.2611 60.6953 37.349 60.092 37.4437 59.4809C37.5925 57.3969 38.4312 59.2537 38.5935 60.2487L38.5935 60.2566Z" fill="#6A686B"/>
<path d="M37.5991 9.90215C37.9034 12.4093 38.0455 14.9321 38.1199 17.4627C36.2802 16.7028 37.6194 13.6394 37.0715 12.1037C37.3218 11.5161 36.7266 9.50257 37.6058 9.90215L37.5991 9.90215Z" fill="#808384"/>
<path d="M38.1134 31.1347C38.2757 34.7152 37.8022 38.28 37.5385 41.837C37.2341 42.7459 37.0921 45.3627 36.5442 43.2238C37.2544 39.2202 37.7143 35.1383 37.6873 31.0406L38.1134 31.1347Z" fill="#A3A5A3"/>
<path d="M37.4436 59.4888C37.3489 60.0921 37.261 60.7032 37.1731 61.3143C36.8552 60.4838 36.5914 59.6298 36.3006 58.7915C36.145 57.4361 36.2329 56.018 37.0648 54.976C37.2204 56.4802 37.3286 57.9688 37.4436 59.4888Z" fill="#9F9B9C"/>
<path d="M37.1797 61.3141C35.712 62.6852 33.2027 63.1318 31.6809 61.7764C31.7215 61.4943 31.8027 60.9381 31.8433 60.656C31.8433 60.2643 31.8568 59.4808 31.8635 59.0812C31.9853 58.8775 32.2288 58.4701 32.3505 58.2664C32.6549 59.1204 31.992 60.9694 32.966 61.1339C33.1486 58.8932 32.851 56.6916 32.4317 54.5214L32.9051 54.6232C33.2636 56.2372 33.3718 57.8982 33.5138 59.5592C33.4936 59.9431 33.4597 60.703 33.4394 61.0791C35.3129 61.6119 34.1293 58.4466 34.6231 57.1382C34.6772 58.1175 34.7854 60.0841 34.8395 61.0634C36.3342 61.1575 34.8936 57.4281 35.3265 56.1432L35.7526 56.198C35.7526 57.8512 35.7526 59.4651 35.7593 61.1339C36.6927 61.1261 36.0637 59.4808 36.2937 58.7913C36.5845 59.6297 36.8415 60.4837 37.1662 61.3141L37.1797 61.3141Z" fill="#5F5A5B"/>
<path d="M30.9442 34.4723C31.1539 37.1988 31.0728 39.941 31.0592 42.6832C30.6872 42.1739 30.4437 41.5706 30.3355 40.8733C30.2882 40.7401 30.1867 40.4659 30.1394 40.3327C30.4099 38.0841 29.8959 35.9922 29.3616 33.8925C29.4833 32.5762 29.5915 31.2522 29.6795 29.9359C29.8959 30.1083 30.3288 30.453 30.5452 30.6254C30.6737 31.9103 30.8022 33.1874 30.9442 34.4801L30.9442 34.4723Z" fill="#42403F"/>
<path d="M36.7131 3.2113C36.5238 4.67641 36.2329 6.13369 36.1923 7.63014L35.7527 7.63014C35.7527 6.54894 35.7798 5.47557 35.8271 4.39436C36.1112 3.98695 36.4088 3.59521 36.7064 3.2113L36.7131 3.2113Z" fill="#605F5D"/>
<path d="M36.443 14.7128C36.5241 15.3631 36.6729 16.6558 36.7473 17.3061C36.0642 17.6822 35.5299 16.5618 35.726 15.888C35.9019 15.5903 36.2603 15.0105 36.443 14.7128Z" fill="#656364"/>
<path d="M36.2603 19.0535C37.6942 20.2287 36.1251 24.295 36.6526 26.285C36.5173 26.0891 36.24 25.6974 36.1048 25.5015C36.1792 23.3548 36.2333 21.2002 36.2671 19.0613L36.2603 19.0535Z" fill="#959A99"/>
<path d="M36.6526 26.2771C36.6526 26.6454 36.6526 27.3818 36.6526 27.7579C36.3956 28.6589 36.24 29.5913 36.1453 30.5314L35.7192 30.5314C35.7192 28.847 35.9221 27.1546 36.098 25.4937C36.24 25.6895 36.5106 26.0813 36.6458 26.2771L36.6526 26.2771Z" fill="#666A61"/>
<path d="M36.1516 30.5393C36.5777 33.2737 37.0174 36.0785 36.3816 38.8285C36.2937 37.8257 36.1584 36.8228 35.8946 35.8591C35.7188 34.0885 35.7255 32.3021 35.7188 30.5393L36.1449 30.5393L36.1516 30.5393Z" fill="#545654"/>
<path d="M36.1926 7.63013C36.2197 8.0062 36.2738 8.77401 36.2941 9.15008C36.2332 11.0069 36.3144 12.8559 36.4429 14.7128C36.267 15.0105 35.9086 15.5903 35.7259 15.888C35.7868 13.1302 35.7395 10.3801 35.753 7.63013L36.1926 7.63013Z" fill="#8B908A"/>
<path d="M35.8949 35.8589C36.1519 36.8226 36.2871 37.8254 36.3818 38.8283C36.3142 39.2122 36.1857 39.9878 36.1248 40.3796L35.6649 40.1994C35.7393 38.7499 35.8137 37.3005 35.8881 35.8589L35.8949 35.8589Z" fill="#B3B4AD"/>
<path d="M35.7734 54.5842C35.7734 54.9917 35.7667 55.7986 35.7599 56.1982L35.3338 56.1434C35.2932 53.9496 34.5222 56.112 34.6304 57.1384C34.1367 58.4546 35.3203 61.6199 33.4468 61.0793C33.4671 60.7032 33.5009 59.9433 33.5212 59.5594C33.7038 57.9924 33.8594 56.4568 33.9946 54.8898C34.5831 54.7566 35.1782 54.6469 35.7734 54.5764L35.7734 54.5842Z" fill="#8F8F86"/>
<path d="M34.3936 4.88802C35.3067 5.09172 34.4883 2.15367 35.3811 3.76764C35.327 5.91438 35.1309 8.04545 34.9279 10.1687L34.4545 10.3567C34.3057 10.0747 34.0149 9.51839 33.8728 9.24417C33.3385 11.2891 33.4738 13.4358 34.2854 15.3318C34.5424 16.0056 34.7453 16.7029 34.9077 17.4159C33.5955 17.98 34.2178 16.178 33.4738 15.7706C33.4197 16.2093 33.3182 17.1025 33.2641 17.5491C33.0274 16.9536 32.8312 16.3425 32.6216 15.7392C32.4254 14.2898 32.8651 12.5505 32.0873 11.3517C31.3433 10.0355 31.5935 11.8845 31.4988 12.527L31.0457 12.5426C31.0592 11.4066 31.1945 10.2784 31.208 9.15016L31.2215 8.75842C31.5529 7.7634 31.8032 6.67435 32.4525 5.88304C32.3849 6.86239 32.1955 7.83391 32.0534 8.81326C33.8525 7.62237 32.723 4.55896 33.4805 2.74911C34.7589 2.23985 34.2042 4.04969 34.3936 4.88802Z" fill="#565450"/>
<path d="M34.9279 10.1688C35.5028 11.6496 35.212 13.2792 35.1985 14.8619C34.583 13.3889 34.9144 11.7358 34.9279 10.1688Z" fill="#424548"/>
<path d="M35.1918 14.8696C35.0431 15.6139 35.8209 17.4472 34.9078 17.4237C34.7455 16.7107 34.5425 16.0134 34.2855 15.3397C34.3261 13.6708 34.3396 12.0255 34.4479 10.3645L34.9213 10.1765C34.901 11.7513 34.5764 13.3966 35.1918 14.8696Z" fill="#7C7C77"/>
<path d="M33.9943 19.7193C34.0214 19.0455 34.9615 17.0711 35.1982 18.3796C34.7789 21.1374 34.7857 23.9423 34.8601 26.7315C34.8195 27.6873 34.7451 28.6432 34.5354 29.5677C34.3866 29.2386 34.1025 28.5648 33.9538 28.2279C33.9199 25.3917 33.7644 22.5477 33.9943 19.7193Z" fill="#3C3E38"/>
<path d="M35.1914 18.3796C35.3672 21.1532 35.2928 23.9345 35.3064 26.7237L34.8532 26.7237C34.7788 23.9502 34.772 21.1375 35.1914 18.3796Z" fill="#A1ACA4"/>
<path d="M35.3066 26.7236C35.2999 27.6795 35.2796 29.5912 35.2661 30.5392C35.0564 30.5392 34.6303 30.5549 34.4139 30.5627C34.4409 30.3198 34.5018 29.8184 34.5288 29.5755C34.7385 28.651 34.8129 27.6951 34.8535 26.7393L35.3066 26.7393L35.3066 26.7236Z" fill="#878985"/>
<path d="M35.2725 30.5393C35.2589 30.9154 35.2184 31.6597 35.2048 32.0358C34.7787 33.352 34.6705 34.7388 34.4405 36.1177C34.427 34.2608 34.2579 32.4118 34.4203 30.5628C34.6367 30.5628 35.0628 30.5471 35.2725 30.5393Z" fill="#4B4742"/>
<path d="M35.144 52.4924C34.9952 53.0016 34.5691 53.127 33.8657 52.8606C34.1025 51.9204 34.3798 50.9881 34.6706 50.0714C34.7991 50.8862 34.9547 51.6932 35.144 52.4924Z" fill="#656467"/>
<path d="M34.6303 57.1307C34.5221 56.1043 35.2863 53.9419 35.3337 56.1357C34.9008 57.4206 36.3482 61.1499 34.8467 61.0559C34.7926 60.0766 34.6844 58.11 34.6303 57.1307Z" fill="#C6C3BC"/>
<path d="M34.8196 46.7885C34.779 47.6034 34.7181 49.2487 34.6775 50.0635C34.3867 50.988 34.1094 51.9125 33.8727 52.8527C32.9934 53.0016 33.8186 51.2779 32.9799 51.2387C32.9528 51.654 32.8987 52.4845 32.8717 52.9075C32.6011 52.5315 32.3306 52.1632 32.0601 51.7872C32.0195 52.2181 31.9316 53.0877 31.891 53.5186C31.4513 52.9702 31.0591 52.3591 30.6465 51.7872C30.6194 53.1034 30.4368 53.9966 29.8484 52.4531C29.9228 51.5129 29.7266 50.5806 29.6252 49.6482C29.9634 49.993 30.3151 50.322 30.6735 50.6433C31.5325 51.0664 30.8832 49.0685 31.0861 48.5122C31.3702 48.951 31.7151 49.2957 32.1277 49.5464C33.1152 50.8626 32.7296 43.5214 31.8436 46.7885C31.3972 46.1147 30.9982 45.3939 30.4841 44.7907C29.7469 44.062 29.5305 42.9651 29.2532 41.9545C29.6049 41.5784 29.9566 41.2023 30.3421 40.8654C30.4503 41.5627 30.6938 42.166 31.0658 42.6753C31.0861 39.9331 31.1673 37.1909 30.9508 34.4644C30.9846 33.6104 31.0388 31.9181 31.0658 31.0719C32.6552 31.6752 30.8223 36.0392 31.519 37.6218C31.5122 39.5022 31.9518 41.3277 32.148 43.1924C32.6823 45.1981 32.7838 47.3291 33.3316 49.3349C33.3857 49.5621 33.5007 50.0086 33.5548 50.2437C34.7519 49.5464 33.7307 47.431 34.8196 46.7885Z" fill="#898586"/>
<path d="M33.8729 9.25195C34.015 9.53401 34.3058 10.0903 34.4546 10.3645C34.3464 12.0255 34.3261 13.6708 34.2923 15.3396C33.4806 13.4436 33.3386 11.2968 33.8797 9.25195L33.8729 9.25195Z" fill="#201C19"/>
<path d="M33.954 28.2279C34.1028 28.5648 34.3868 29.2386 34.5356 29.5677C34.5086 29.8105 34.4477 30.312 34.4207 30.5548C34.2583 32.4039 34.4274 34.245 34.441 36.1097C34.2989 38.0214 34.0622 39.9253 33.9946 41.837C33.9269 42.3149 33.7984 43.2786 33.7308 43.7487C33.0544 40.7479 33.9269 37.7629 33.7984 34.7621C33.839 33.3519 33.8661 31.9416 33.8796 30.5392C33.9066 29.7635 33.9337 28.9957 33.954 28.2279Z" fill="#222023"/>
<path d="M33.9945 41.8369C34.9684 44.2422 33.6428 46.9609 33.3249 49.3427C33.4061 47.4623 33.4669 45.6055 33.7307 43.7486C33.7984 43.2707 33.9269 42.3148 33.9945 41.8369Z" fill="#AAA7A3"/>
<path d="M33.426 18.4109C33.568 18.74 33.8521 19.3903 33.9941 19.7115C33.7642 22.5399 33.9197 25.3839 33.9536 28.2201C33.9333 28.9879 33.9062 29.7557 33.8792 30.5314L33.4057 30.5314C33.426 26.4964 33.3651 22.4537 33.426 18.4031L33.426 18.4109Z" fill="#A4A4A2"/>
<path d="M33.8726 30.5393C33.8591 31.9417 33.832 33.352 33.7915 34.7623C32.7905 37.4653 33.3113 40.56 32.1412 43.2004C31.945 41.3435 31.4986 39.5102 31.5122 37.6298L31.9653 37.6298C32.1885 38.2801 31.5527 39.8549 32.4455 39.8314C32.4861 38.9069 32.574 37.0579 32.6146 36.1255C33.0475 34.3 33.1422 32.3962 33.4059 30.5471L33.8794 30.5471L33.8726 30.5393Z" fill="#444240"/>
<path d="M33.7983 34.7622C33.9268 37.7708 33.0611 40.748 33.7306 43.7487C33.4669 45.6056 33.406 47.4546 33.3248 49.3428C32.777 47.3371 32.6823 45.206 32.1412 43.2003C33.3113 40.56 32.7973 37.4652 33.7915 34.7622L33.7983 34.7622Z" fill="#726F6E"/>
<path d="M32.912 54.6234C33.1825 54.6939 33.7236 54.8271 33.9941 54.8898C33.8589 56.4568 33.7033 57.9924 33.5207 59.5593C33.3787 57.8984 33.2704 56.2374 32.912 54.6234Z" fill="#C8C8C0"/>
<path d="M31.5323 18.0034C32.3371 17.925 33.3178 17.7762 32.9526 19.1002C32.7091 18.9592 32.2154 18.6772 31.9719 18.5361C32.0057 20.8552 31.9178 23.19 32.141 25.5091C32.0125 26.3866 31.7622 28.1573 31.6405 29.0348C31.4849 25.3603 31.5255 21.6857 31.539 18.0112L31.5323 18.0034Z" fill="#2F2E30"/>
<path d="M32.946 19.0923C32.9663 22.9 32.9528 26.7156 32.9258 30.5233L32.4591 30.5547C32.4591 28.8545 32.6552 27.1152 32.1344 25.4934C31.9112 23.1743 31.9991 20.8395 31.9653 18.5204C32.2088 18.6614 32.7026 18.9435 32.946 19.0845L32.946 19.0923Z" fill="#6A6A6A"/>
<path d="M32.4387 54.5215C32.858 56.6917 33.1556 58.8933 32.973 61.1341C32.0058 60.9617 32.6686 59.1127 32.3575 58.2665C32.1343 57.1931 32.3169 55.6654 31.5053 54.9681C31.3294 56.394 31.4444 57.7573 31.8705 59.0813C31.8638 59.4731 31.8502 60.2566 31.8502 60.6561C31.0251 59.191 31.2077 57.4204 30.9777 55.7594C29.3545 54.3413 31.5256 59.5122 30.1526 59.4887C30.1323 58.6661 30.0985 57.0208 30.0782 56.206L29.6385 56.1668C29.625 57.0051 29.5912 58.6896 29.5709 59.5357C29.4559 59.3947 29.2395 59.1127 29.1245 58.9717C29.0704 57.9218 29.5168 54.9132 28.5293 57.1618C27.3592 55.3363 25.4654 54.1532 24.8297 51.9125L25.2964 51.9908C25.763 52.1632 26.2365 52.3356 26.7032 52.5001C27.5013 52.884 28.3264 53.2287 29.1516 53.5186C30.227 53.9417 31.343 54.2159 32.4454 54.5215L32.4387 54.5215Z" fill="#C5C2C3"/>
<path d="M32.0868 11.3518C32.8713 12.5505 32.4317 14.2899 32.6211 15.7393C32.4588 16.0214 32.1409 16.5776 31.9786 16.8597C32.0124 15.0185 31.9988 13.1852 32.08 11.3518L32.0868 11.3518Z" fill="#7D7870"/>
<path d="M32.1413 25.5015C32.6621 27.1233 32.466 28.8626 32.466 30.5628L31.9452 30.5863C31.7829 30.077 31.6747 29.5521 31.6341 29.0193C31.7626 28.1418 32.0128 26.3712 32.1346 25.4937L32.1413 25.5015Z" fill="#54504E"/>
<path d="M31.9993 31.589C33.1221 32.2001 32.3172 34.7386 32.6148 36.1332C32.5742 37.0577 32.4863 38.9067 32.4457 39.839C31.5529 39.8626 32.1887 38.2878 31.9655 37.6375C31.9723 36.1253 31.9925 33.1011 32.0061 31.589L31.9993 31.589Z" fill="#8F8985"/>
<path d="M31.83 46.7887C32.7228 43.5215 33.1015 50.8706 32.1141 49.5465C31.7827 47.8542 30.6802 46.5301 30.4705 44.7908C30.9846 45.3941 31.3768 46.1149 31.83 46.7887Z" fill="#5F5C60"/>
<path d="M31.5055 54.9681C32.3171 55.6576 32.1345 57.1854 32.3577 58.2666C32.2359 58.4703 31.9924 58.8777 31.8707 59.0814C31.4446 57.7652 31.3296 56.3941 31.5055 54.9681Z" fill="#8C8786"/>
<path d="M31.4985 12.527C31.5932 11.8845 31.3429 10.0434 32.0869 11.3518C32.0058 13.193 32.0193 15.0185 31.9855 16.8597L31.6608 17.0869C31.5999 15.5591 31.5458 14.0391 31.4985 12.527Z" fill="#2E2B29"/>
<path d="M31.6337 29.0271C31.6743 29.5599 31.7825 30.0848 31.9448 30.5941C31.7284 30.5706 31.3023 30.5314 31.0859 30.5157C31.0656 26.3476 30.9844 22.1717 31.0859 18.0035L31.539 18.0035C31.5255 21.6781 31.4849 25.3526 31.6405 29.0271L31.6337 29.0271Z" fill="#979A98"/>
<path d="M30.4773 44.7984C30.687 46.5378 31.7894 47.8618 32.1209 49.5542C31.7083 49.3034 31.3701 48.9587 31.0793 48.52C30.5111 47.8618 30.3894 45.2058 29.4357 46.3967C28.5294 44.8219 28.3603 42.7535 27.2714 41.3511C27.4405 44.109 28.827 46.5064 29.7604 48.9901C29.8956 48.8647 30.1729 48.614 30.315 48.4886C30.572 49.1624 30.5585 49.9224 30.6667 50.651C30.3082 50.3298 29.9633 49.9929 29.6183 49.656C29.7198 50.5884 29.9227 51.5129 29.8415 52.4609C29.6927 52.3434 29.3816 52.0926 29.2328 51.9673L28.9961 52.4452C28.5565 52.1083 28.1304 51.7479 27.7043 51.3875C27.0888 50.322 26.4936 49.2016 26.3245 47.9167C26.8318 48.4416 27.2646 49.0606 27.7178 49.6403C27.7448 49.2173 27.8057 48.3554 27.8395 47.9324C28.2859 48.7158 28.685 49.5307 29.1787 50.275C29.2666 48.7785 28.5362 47.5014 27.8395 46.3262C27.3323 44.9159 26.8385 43.4978 26.4665 42.0249C26.7235 41.4373 26.9603 40.8418 27.224 40.2699C27.9545 40.7635 29.1787 40.7165 29.2396 41.9622C29.5169 42.9807 29.7333 44.0698 30.4705 44.7984L30.4773 44.7984Z" fill="#918B8E"/>
<path d="M31.8438 60.6562C31.8032 60.9382 31.7221 61.5023 31.6815 61.7766C31.0187 61.1498 30.3288 60.5543 29.6457 59.9667L29.5713 59.5358C29.5916 58.6975 29.6254 57.013 29.6389 56.1668L30.0785 56.206C30.0988 57.0208 30.1326 58.6661 30.1529 59.4888C31.5259 59.5123 29.3548 54.3413 30.9781 55.7594C31.208 57.4204 31.0254 59.1911 31.8506 60.6562L31.8438 60.6562Z" fill="#817D80"/>
<path d="M31.4986 12.527C31.5459 14.0469 31.6 15.5591 31.6609 17.0868C31.5121 17.1809 31.2145 17.3689 31.0657 17.4707C31.0116 15.8254 31.0251 14.1723 31.0522 12.5426L31.5053 12.527L31.4986 12.527Z" fill="#8B897D"/>
<path d="M29.8418 7.31665C30.3221 7.77107 30.7617 8.2725 31.2148 8.76609L31.2013 9.15783C30.9308 9.15 30.3897 9.13433 30.1259 9.11866C29.524 9.06382 28.922 9.11866 28.32 9.1735C28.1915 9.05598 27.921 8.80527 27.7857 8.68774C27.691 11.806 27.0214 14.8929 27.7519 18.0033L27.2514 17.9328C26.6765 15.1045 26.8862 12.2369 27.2243 9.40071C26.0881 7.66922 26.3451 10.5681 25.9528 11.4848L25.4929 11.4848C25.6079 10.5133 25.7364 9.54174 25.7837 8.57022C26.2707 8.33518 26.7577 8.12364 27.2446 7.89643C28.1104 7.89643 29.2737 8.32734 29.8486 7.31665L29.8418 7.31665Z" fill="#8B8B87"/>
<path d="M29.4361 46.397C30.3897 45.2061 30.5115 47.8621 31.0796 48.5202C30.8767 49.0843 31.5192 51.0744 30.667 50.6513C30.5656 49.9227 30.5723 49.1705 30.3153 48.4889C30.0515 47.7681 29.7336 47.0865 29.4361 46.397Z" fill="#615C63"/>
<path d="M29.9633 9.6438C30.1662 12.1588 31.6744 15.6296 29.6927 17.557C29.6995 17.1417 29.7265 16.3112 29.7401 15.8881C30.5179 13.9138 29.0637 11.626 29.9633 9.6438Z" fill="#6F6B67"/>
<path d="M30.5381 18.6616C30.6734 22.6417 30.5652 26.6296 30.5381 30.6175C30.3217 30.4452 29.8888 30.1004 29.6724 29.9281C29.6656 26.1047 29.5777 22.2813 29.6724 18.4579C29.8888 18.5127 30.3217 18.6146 30.5381 18.6616Z" fill="#6C6C6A"/>
<path d="M30.1391 40.3328C30.1932 40.466 30.2879 40.7402 30.3352 40.8734C29.9564 41.2024 29.598 41.5863 29.2463 41.9624C29.1854 40.7167 27.9612 40.7637 27.2307 40.2701C26.8926 39.847 26.5273 39.4631 26.0945 39.1732C25.8916 38.4524 25.6887 37.7316 25.4925 37.0108L25.9524 36.956C26.2838 37.7003 26.2974 38.9225 27.2848 38.758C27.1699 37.998 26.9873 37.2458 26.8385 36.4937L27.2781 36.5564C27.7312 37.4731 27.968 38.5934 28.6714 39.2986C28.8405 38.6091 28.9757 37.904 28.8675 37.1832C28.9554 36.9951 29.1313 36.6191 29.2192 36.431C29.5168 37.7238 29.4018 39.2281 30.1391 40.3328Z" fill="#535150"/>
<path d="M30.1256 9.11088L29.9632 9.64365C29.0704 11.6259 30.5178 13.9136 29.74 15.888C29.5642 16.0525 29.2057 16.3659 29.0366 16.5226C28.827 14.7754 28.827 12.9813 28.3332 11.3046C28.3197 10.5917 28.3129 9.87869 28.3265 9.16572C28.9217 9.10304 29.5304 9.05603 30.1323 9.11088L30.1256 9.11088Z" fill="#413D3A"/>
<path d="M29.3613 33.8925C29.8957 35.9923 30.4097 38.0842 30.1391 40.3328C29.4019 39.2281 29.5101 37.7238 29.2193 36.431C28.9758 34.8014 28.4077 33.0856 29.0232 31.5029C29.1246 32.3021 29.2328 33.0934 29.3681 33.8925L29.3613 33.8925Z" fill="#918F8A"/>
<path d="M29.4359 46.3969C29.7335 47.0864 30.0514 47.768 30.3152 48.4888C30.1732 48.6142 29.8958 48.8649 29.7606 48.9903C28.8272 46.5066 27.4407 44.1092 27.2716 41.3513C28.3673 42.7538 28.5364 44.8221 29.4359 46.3969Z" fill="#BCB8B7"/>
<path d="M29.74 15.8881C29.7265 16.3112 29.6994 17.1417 29.6926 17.5569C29.6859 17.7841 29.6724 18.2307 29.6724 18.4579C29.5844 22.2813 29.6724 26.1047 29.6724 29.9281C29.5844 31.2443 29.4762 32.5684 29.3545 33.8847C29.226 33.0855 29.111 32.2942 29.0095 31.495C29.0163 31.2835 29.0433 30.8604 29.0501 30.6489C29.2124 26.5826 29.2124 22.5007 29.138 18.4344L29.1177 17.9565C29.1042 17.7293 29.0772 17.267 29.0636 17.0398L29.0298 16.5149C29.2057 16.3582 29.5641 16.0369 29.7332 15.8802L29.74 15.8881Z" fill="#040303"/>
<path d="M29.5643 59.5358L29.6387 59.9667L29.7063 60.4838C27.5623 58.5878 25.4588 56.206 23.1254 54.4118L23.1457 53.879C25.2491 55.3755 27.3323 56.9581 29.1179 58.9638C29.2329 59.1048 29.4493 59.3869 29.5643 59.5279L29.5643 59.5358Z" fill="#525558"/>
<path d="M29.0367 16.5307L29.0706 17.0557C27.1565 16.4132 28.6309 13.0442 28.3333 11.3127C28.8271 12.9894 28.8271 14.7914 29.0367 16.5307Z" fill="#7F7E71"/>
<path d="M29.1245 17.9641L29.1448 18.442C28.9351 18.5125 28.5022 18.6457 28.2858 18.7163C28.1708 22.2733 28.1641 25.8381 28.2655 29.3951C28.4008 29.9044 28.6646 30.3196 29.0568 30.6643C29.0501 30.8759 29.023 31.299 29.0163 31.5105C28.4008 33.0931 28.9689 34.809 29.2124 36.4386C29.1245 36.6266 28.9486 37.0027 28.8607 37.1908C28.2114 35.7726 27.6906 34.2527 27.393 32.6857C27.4809 30.5547 27.9003 28.4471 27.6636 26.316C27.7109 23.5425 27.7853 20.7768 27.7515 18.0111C28.0964 18.0111 28.7795 17.9876 29.1245 17.9798L29.1245 17.9641Z" fill="#282525"/>
<path d="M29.1452 18.4423C29.2263 22.5086 29.2263 26.5905 29.0572 30.6568C28.6649 30.3199 28.4012 29.8968 28.2659 29.3875C28.1644 25.8305 28.1644 22.2657 28.2862 18.7087C28.4959 18.646 28.9287 18.505 29.1452 18.4344L29.1452 18.4423Z" fill="#8E8E8B"/>
<path d="M28.8609 37.1831C28.9691 37.9039 28.8406 38.609 28.6647 39.2985C27.9613 38.5933 27.7246 37.4729 27.2715 36.5563C26.7574 32.5683 26.771 28.5334 26.798 24.5142L27.2376 24.5925C27.3661 25.1644 27.5082 25.7364 27.6637 26.3083C27.9072 28.4394 27.4811 30.5548 27.3932 32.678C27.6908 34.2528 28.2048 35.765 28.8609 37.1831Z" fill="#928F8D"/>
<path d="M27.8463 46.3263C28.5362 47.5015 29.2734 48.7786 29.1855 50.275C28.6917 49.5307 28.2927 48.7081 27.8463 47.9324C27.8125 48.3555 27.7516 49.2173 27.7245 49.6404C27.2646 49.0606 26.8385 48.4417 26.3312 47.9167C26.5003 49.2017 27.0955 50.322 27.711 51.3876C28.0154 52.4844 27.4472 52.2651 26.825 51.8968C26.3854 50.4709 26.0539 48.8804 24.9853 47.8854C25.0935 48.6454 25.2626 49.3975 25.3979 50.1575C24.8974 49.8206 24.4104 49.4445 23.9031 49.1233C24.2684 50.1418 24.8433 51.035 25.2964 51.9987L24.8297 51.9203C23.2741 50.228 21.7456 48.4965 20.4064 46.5692C19.8179 47.0549 19.2836 47.6112 18.8034 48.2301C18.2082 47.5015 17.7686 46.6318 17.3357 45.77C16.9434 44.8847 16.2671 44.2501 15.6043 43.6624L15.6922 43.2237C15.8883 42.6674 15.7666 42.0955 15.6516 41.5392C15.7598 41.3668 15.9763 41.0299 16.0777 40.8576C17.3763 42.4245 17.9309 45.1197 19.7571 45.9345C18.8237 43.4666 17.4913 41.2572 16.5038 38.8205C16.6323 38.6482 16.9029 38.3113 17.0381 38.1467C18.0256 39.9566 18.614 42.0485 19.73 43.7721C19.6624 42.6282 19.446 41.5079 19.3039 40.3718L19.7774 40.3561C20.3793 40.7792 21.0083 41.8056 21.7523 41.1005C22.3475 41.4844 23.4162 42.6674 22.8886 41.0534C23.0509 40.4032 23.2335 39.7607 23.4364 39.1261C23.8761 40.7557 25.0191 41.9545 25.5534 43.5371C25.6752 43.4196 25.9119 43.2002 26.0336 43.0905C26.48 44.2814 26.6897 45.7935 27.8395 46.3498L27.8463 46.3263ZM21.5968 42.5577C20.616 42.9416 21.7185 45.3626 22.6181 45.0649C24.7621 48.0029 22.077 40.2308 21.5968 42.5577Z" fill="#AAA8AC"/>
<path d="M29.0028 52.4453C29.0366 52.7117 29.111 53.2523 29.1516 53.5186C28.3197 53.2209 27.5013 52.884 26.7032 52.5001L26.825 51.8968C27.4472 52.2651 28.0153 52.4844 27.711 51.3876C28.1371 51.748 28.5632 52.1084 29.0028 52.4453Z" fill="#66656D"/>
<path d="M28.5295 57.1541C29.5169 54.9055 29.0706 57.9141 29.1247 58.9639C27.3391 56.9582 25.2559 55.3834 23.1525 53.8791C21.3804 52.8293 19.9736 49.6875 17.7822 49.9147C17.2682 50.0949 16.6662 49.2566 16.6392 48.7003C16.7474 47.956 16.2469 47.3762 15.9966 46.7495L16.3754 46.8121C17.1329 47.2117 17.9175 48.9981 18.79 48.2146C19.2769 47.5956 19.8045 47.0393 20.3929 46.5536C21.7321 48.481 23.2539 50.2124 24.8163 51.9048C25.4521 54.1455 27.3526 55.3286 28.5159 57.1541L28.5295 57.1541Z" fill="#959598"/>
<path d="M28.6851 2.6394C28.6851 3.47773 28.6919 5.16221 28.6919 6.00054C27.5759 6.42362 27.7179 5.21706 27.6774 4.33172C28.0223 3.77545 28.3334 3.18784 28.6784 2.6394L28.6851 2.6394Z" fill="#88807A"/>
<path d="M27.7517 2.06741C27.7584 2.82738 27.7381 3.57953 27.684 4.33167C27.427 5.07598 27.2241 5.83595 27.028 6.60377C26.9536 6.42357 26.8115 6.05533 26.7371 5.87513C26.9739 4.61372 26.8927 2.99191 27.7517 2.05957L27.7517 2.06741Z" fill="#8D8880"/>
<path d="M27.7515 18.0034C27.7853 20.7769 27.7109 23.5426 27.6635 26.3083C27.5148 25.7442 27.366 25.1644 27.2374 24.5925C27.2713 22.5319 27.2916 20.4714 27.1969 18.4186L27.2442 17.925L27.7447 17.9956L27.7515 18.0034Z" fill="#CFCECA"/>
<path d="M26.4734 42.0251C26.8387 43.4981 27.3324 44.9162 27.8464 46.3264C26.6899 45.7623 26.487 44.258 26.0406 43.0672C25.8106 42.3228 25.5671 41.5864 25.3913 40.8342C25.77 41.2025 26.1353 41.6099 26.4802 42.0251L26.4734 42.0251Z" fill="#CFC9C8"/>
<path d="M27.0279 6.60376C27.0888 7.03468 27.1564 7.46559 27.2375 7.88867C26.7506 8.11588 26.2636 8.32742 25.7766 8.56246L25.337 8.69566C25.479 8.13155 25.6414 7.57527 25.824 7.03467C26.1351 6.65077 26.4395 6.26686 26.7303 5.87512C26.8047 6.05532 26.9467 6.42356 27.0211 6.60376L27.0279 6.60376Z" fill="#4C4B48"/>
<path d="M27.2242 9.40073C26.886 12.2369 26.6764 15.1045 27.2513 17.9328L27.2039 18.4264C26.8928 20.44 26.7643 22.4692 26.8049 24.5219C26.7711 28.5412 26.7643 32.5761 27.2783 36.564L26.8387 36.5014C26.1556 34.1431 25.9324 31.6594 25.8512 29.1836C26.6425 25.6736 26.3111 22.0461 26.3382 18.4656C26.5614 16.8908 26.23 16.7968 25.4183 17.9564C25.6686 15.8096 25.8444 13.655 25.9594 11.5005C26.3517 10.5838 26.0947 7.68491 27.231 9.4164L27.2242 9.40073Z" fill="#1F1A1A"/>
<path d="M27.2037 18.4187C27.2984 20.4714 27.2713 22.532 27.2443 24.5925L26.8046 24.5142C26.7641 22.4615 26.8926 20.4322 27.2037 18.4187Z" fill="#666258"/>
<path d="M26.8385 36.4935C26.9873 37.2457 27.1699 37.99 27.2849 38.7578C26.2974 38.9302 26.2839 37.7079 25.9525 36.9558C25.6143 32.5996 24.708 28.3453 24.3698 23.997C24.6742 22.6807 23.822 20.1344 24.965 19.6957C24.9447 21.7092 24.8636 23.7463 25.0462 25.7598C25.1273 26.9429 25.479 28.0711 25.8443 29.1758C25.9254 31.6516 26.1486 34.1352 26.8318 36.4935L26.8385 36.4935Z" fill="#B9B8B4"/>
<path d="M26.0944 39.1733C26.5205 39.4632 26.8925 39.8471 27.2307 40.2702C26.9669 40.8421 26.7302 41.4376 26.4732 42.0252C26.1283 41.6021 25.7698 41.2025 25.3843 40.8343C25.5601 41.5942 25.8036 42.3307 26.0336 43.0672C25.9118 43.1769 25.6751 43.3963 25.5534 43.5138C25.019 41.9233 23.8692 40.7324 23.4364 39.1028C24.0451 39.5572 25.2287 41.2574 24.9243 39.3613L24.9717 38.7189C25.276 39.3378 25.5872 40.09 26.0944 39.1733Z" fill="#7A7476"/>
<path d="M24.9855 47.8856C26.0474 48.8807 26.3856 50.4711 26.8252 51.8971L26.7035 52.5003C26.23 52.3358 25.7633 52.1713 25.2966 51.9911C24.8367 51.0274 24.2686 50.1342 23.9033 49.1157C24.4106 49.4448 24.9044 49.813 25.3981 50.1499C25.2696 49.3899 25.0937 48.6456 24.9855 47.8778L24.9855 47.8856Z" fill="#838086"/>
<path d="M25.4116 17.9407C26.2233 16.7812 26.5614 16.883 26.3315 18.45C26.0407 18.8496 25.7431 19.2491 25.4387 19.6409L24.9653 19.6879C23.8154 20.1266 24.6677 22.673 24.3701 23.9892L23.8696 24.1537C22.9632 21.8425 24.8773 19.5704 23.9981 17.3923C24.1942 17.455 24.5797 17.5647 24.7759 17.6195C24.9314 17.6978 25.2493 17.8624 25.4049 17.9407L25.4116 17.9407Z" fill="#545251"/>
<path d="M26.3315 18.45C26.3112 22.0305 26.6359 25.658 25.8445 29.168C25.4793 28.0633 25.1208 26.9351 25.0464 25.752C25.2696 23.715 25.4049 21.6779 25.4387 19.633C25.7431 19.2413 26.0339 18.8417 26.3315 18.4421L26.3315 18.45Z" fill="#837F7B"/>
<path d="M24.7759 2.15359C26.5074 2.93707 25.8581 5.31885 25.8243 7.03468C25.6484 7.57528 25.4793 8.13155 25.3373 8.69566C25.2832 8.85236 25.1682 9.17358 25.1141 9.33028C24.4378 8.10805 24.3093 9.72202 24.0117 10.341L23.5585 10.3958C23.7479 9.30677 23.9237 8.21773 24.059 7.12086C24.8436 5.82028 23.9305 4.21414 23.9643 2.78037C24.1605 2.62368 24.5663 2.30245 24.7692 2.14575L24.7759 2.15359Z" fill="#797873"/>
<path d="M25.7834 8.5624C25.7361 9.54175 25.6076 10.5133 25.4926 11.4769C25.2288 13.514 25.0056 15.5589 24.7824 17.6116C24.5863 17.5568 24.2008 17.4471 24.0046 17.3844C23.7206 14.7676 24.5254 11.9157 25.1206 9.32237C25.1747 9.16568 25.2897 8.84445 25.3438 8.68776L25.7834 8.55457L25.7834 8.5624Z" fill="#252222"/>
<path d="M25.9524 11.485C25.8374 13.6474 25.6616 15.802 25.4113 17.9409C25.249 17.8625 24.9379 17.698 24.7823 17.6196C25.0055 15.5669 25.2287 13.522 25.4925 11.485L25.9524 11.485Z" fill="#ADAFA8"/>
<path d="M24.3697 23.9971C24.7079 28.3454 25.6142 32.5997 25.9524 36.9559L25.4925 37.0107C25.0055 35.2166 24.4915 33.4224 24.1398 31.5812C24.2886 30.2806 24.1601 28.98 23.9166 27.703C23.9098 26.8176 23.876 25.0391 23.8625 24.1538L24.363 23.9893L24.3697 23.9971Z" fill="#2C2828"/>
<path d="M25.4928 37.0107C25.6889 37.7315 25.8918 38.4524 26.0947 39.1732C25.5807 40.082 25.2696 39.3298 24.972 38.7187C24.6067 37.1988 24.1536 35.7102 23.6869 34.2372C23.4366 32.874 23.1188 31.5264 22.9159 30.1474C23.2608 29.3326 23.5922 28.5178 23.9236 27.7108C24.1671 28.9879 24.2889 30.2885 24.1468 31.5891C24.4985 33.4302 25.0126 35.2244 25.4995 37.0186L25.4928 37.0107Z" fill="#C4C5C3"/>
<path d="M25.4385 19.6409C25.3979 21.6779 25.2694 23.7228 25.0462 25.7599C24.8703 23.7463 24.9447 21.7093 24.965 19.6957L25.4385 19.6487L25.4385 19.6409Z" fill="#242225"/>
<path d="M24.0116 10.3489C24.3092 9.72995 24.4377 8.11598 25.114 9.33821C24.5188 11.9315 23.714 14.7912 23.998 17.4002C24.8773 19.5862 22.9564 21.8582 23.8695 24.1617C23.8831 25.047 23.9101 26.8177 23.9236 27.7109C23.5922 28.5178 23.2608 29.3327 22.9159 30.1475C22.2733 26.8882 22.0366 23.5349 22.1178 20.2051C23.1796 17.0712 23.7072 13.6944 24.0183 10.3567L24.0116 10.3489Z" fill="#B6B7B4"/>
<path d="M23.6866 34.2293C24.1533 35.71 24.6064 37.1987 24.9717 38.7108L24.9243 39.3532C24.0992 38.037 23.4634 36.564 23.1049 34.9814C23.2537 34.7934 23.5378 34.4173 23.6866 34.2214L23.6866 34.2293Z" fill="#4A4F4D"/>
<path d="M24.9245 39.3533C25.2288 41.2493 24.0452 39.5492 23.4365 39.0947C23.3418 38.8519 23.1592 38.3583 23.0645 38.1075C21.8606 35.2948 21.0895 32.2784 20.3253 29.2855C19.9803 26.3083 19.6421 23.3154 19.8315 20.299C20.5687 16.3033 22.077 12.5896 23.22 8.74266C23.4906 8.19422 23.7611 7.63795 24.0655 7.12085C23.9235 8.21772 23.7476 9.30676 23.565 10.3958C22.963 13.6708 22.2258 16.9222 21.6644 20.2128C20.7919 25.1096 21.8741 30.2727 23.1118 34.9815C23.4703 36.5563 24.1061 38.0292 24.9312 39.3533L24.9245 39.3533Z" fill="#D6D7D9"/>
<path d="M24.0115 10.3489C23.7004 13.6865 23.1728 17.0633 22.1109 20.1973L21.6578 20.2129C22.2259 16.9223 22.9564 13.6787 23.5583 10.3959L24.0115 10.3411L24.0115 10.3489Z" fill="#424141"/>
<path d="M22.9157 30.1397C23.1254 31.5108 23.4365 32.8584 23.6868 34.2295C23.538 34.4176 23.2539 34.7936 23.1051 34.9895C21.8674 30.2729 20.7852 25.1098 21.6577 20.2209L22.1109 20.2052C22.0365 23.535 22.2664 26.8883 22.909 30.1476L22.9157 30.1397Z" fill="#2D2D30"/>
<path d="M23.0648 38.1155C23.1595 38.3662 23.3421 38.8598 23.4368 39.1027C23.2339 39.7373 23.0512 40.3797 22.8889 41.03C22.6048 40.0899 22.3343 39.134 22.1314 38.1625C22.3614 38.1547 22.828 38.1311 23.0648 38.1155Z" fill="#908E90"/>
<path d="M21.5968 42.5578C22.077 40.2309 24.7689 48.003 22.6181 45.065C22.4085 44.164 22.0432 43.3256 21.5968 42.5578Z" fill="#D2D0D0"/>
<path d="M22.2663 9.36176C22.4895 8.72714 22.6654 7.81047 23.22 8.75848C22.0769 12.6054 20.5687 16.3112 19.8314 20.3148C19.7165 20.119 19.4797 19.7351 19.3647 19.547C19.9464 16.0214 21.5764 12.8639 22.2731 9.3696L22.2663 9.36176Z" fill="#515253"/>
<path d="M20.3252 29.2933C21.0895 32.2862 21.8673 35.3026 23.0645 38.1153C22.8277 38.131 22.361 38.1545 22.1311 38.1623C21.4209 35.2243 20.1223 32.4978 19.8112 29.4344L20.3185 29.2933L20.3252 29.2933Z" fill="#535557"/>
<path d="M22.8886 41.0223C23.4162 42.6284 22.3543 41.4454 21.7524 41.0693C20.2103 36.2979 18.4112 31.597 17.4981 26.5906C17.072 22.7358 17.1464 18.7557 18.9658 15.3946C19.3919 14.4779 19.8112 13.5534 20.1223 12.5819C20.589 11.1168 21.0151 9.64386 21.3195 8.1239C21.6374 8.53131 21.962 8.93872 22.2731 9.3618C21.5833 12.8561 19.9465 16.0136 19.3648 19.5392C19.3175 19.9545 19.2228 20.785 19.1754 21.2002C18.3909 22.2657 18.1609 24.248 19.216 25.1411C19.2769 26.5906 19.5339 28.0165 19.8112 29.4346C20.1223 32.498 21.4142 35.2245 22.1311 38.1626C22.334 39.1341 22.6046 40.0821 22.8886 41.0301L22.8886 41.0223Z" fill="#E1E0E5"/>
<path d="M17.7823 49.9147C19.9737 49.6875 21.3805 52.8292 23.1526 53.8791C21.1303 53.268 19.4462 51.4033 17.7823 49.9147Z" fill="#54555A"/>
<path d="M21.5966 42.558C22.043 43.3258 22.4083 44.1641 22.6179 45.0651C21.7184 45.3628 20.6159 42.9419 21.5966 42.558Z" fill="#868488"/>
<path d="M17.4982 26.5905C18.4112 31.5969 20.2171 36.2978 21.7524 41.0692C21.2722 40.6069 20.7176 40.1839 20.5418 39.4396C19.2093 35.483 17.6605 31.5812 17.018 27.3583C17.1329 27.1702 17.3764 26.7863 17.4914 26.5905L17.4982 26.5905Z" fill="#6C6D70"/>
<path d="M21.7524 41.0692C21.0085 41.7743 20.3794 40.7479 19.7775 40.3249C18.763 37.7315 17.9919 34.8562 16.4498 32.6076C16.6121 35.4516 18.303 37.8021 19.2973 40.3405C19.4393 41.4766 19.649 42.597 19.7234 43.7408C18.6006 42.0172 18.019 39.9253 17.0315 38.1154C14.7251 33.7436 12.9734 28.9957 12.0941 23.9658C12.2497 22.9159 12.297 21.8425 12.3443 20.777C12.669 19.2727 13.1086 17.8076 13.1627 16.2485C12.2429 17.267 12.04 18.8183 11.8033 20.1972C11.8033 21.1374 11.783 23.0178 11.7762 23.9579C12.1009 29.3326 14.4275 34.0962 16.4972 38.7892C17.4846 41.2259 18.8171 43.4353 19.7504 45.9033C17.9243 45.0963 17.3697 42.3933 16.0711 40.8263C13.3521 35.3498 10.6196 29.74 10.0177 23.3233C9.74714 21.3646 9.88918 19.4451 10.3964 17.5804C10.8969 16.3268 11.3636 15.0497 11.8574 13.7883C13.0004 12.3781 14.0217 10.8503 15.0565 9.346C15.9831 8.48417 16.8151 7.48915 17.5455 6.40795C19.8654 6.36094 19.1214 2.34167 20.7041 0.970581C20.5756 3.28185 19.4867 5.32674 19.1823 7.60667C19.7098 6.96422 20.792 5.87518 20.8799 7.48915C20.5756 8.9856 20.1292 10.4507 19.6016 11.861C19.1755 12.7777 18.7562 13.7022 18.4315 14.6815C16.8421 18.6068 15.9696 23.0961 17.0112 27.3504C17.6537 31.5655 19.2026 35.4751 20.535 39.4317C20.7109 40.176 21.2655 40.5991 21.7457 41.0613L21.7524 41.0692ZM17.7687 12.1665C16.9571 12.1744 16.4025 13.7335 16.5648 14.5562C17.3764 14.5405 17.931 12.9892 17.7687 12.1665ZM16.0237 15.7784C13.2033 19.3432 13.9338 25.5954 15.0971 29.9359L15.5367 30.0142C15.4556 27.2015 14.3261 24.4829 14.8266 21.631C14.8807 19.5783 15.9426 17.8154 16.0305 15.7862L16.0237 15.7784Z" fill="#DAD9DF"/>
<path d="M20.8866 7.49695C20.9949 7.65364 21.2045 7.96703 21.3127 8.12373C21.0084 9.64368 20.5823 11.1166 20.1156 12.5817C19.9871 12.4094 19.7368 12.049 19.6083 11.8688C20.1359 10.4585 20.5823 8.9934 20.8866 7.49695Z" fill="#555253"/>
<path d="M20.1223 12.574C19.818 13.5534 19.3919 14.4701 18.9657 15.3868C18.8372 15.2144 18.5735 14.854 18.4382 14.6816C18.7628 13.7023 19.1822 12.7778 19.6083 11.8611C19.7368 12.0413 19.987 12.3938 20.1155 12.574L20.1223 12.574Z" fill="#737574"/>
<path d="M19.8315 20.3069C19.6421 23.3154 19.9803 26.3162 20.3252 29.2934L19.8179 29.4344C19.5406 28.0163 19.2836 26.5904 19.2227 25.141C19.216 24.1538 19.1889 22.1872 19.1822 21.2C19.2295 20.7848 19.3242 19.9543 19.3715 19.5391C19.4865 19.7271 19.7232 20.111 19.8382 20.3069L19.8315 20.3069Z" fill="#212123"/>
<path d="M16.4497 32.6154C17.9918 34.8639 18.756 37.7315 19.7773 40.3326L19.3039 40.3483C18.3097 37.8098 16.6188 35.4672 16.4564 32.6154L16.4497 32.6154Z" fill="#65676C"/>
<path d="M19.1755 21.2001C19.1822 22.1873 19.2093 24.1538 19.2161 25.141C18.161 24.2557 18.3909 22.2734 19.1755 21.2001Z" fill="#91898E"/>
<path d="M18.4383 14.6893C18.5668 14.8617 18.8305 15.2221 18.9658 15.3945C17.1464 18.7634 17.072 22.7435 17.4981 26.5904C17.3832 26.7863 17.1397 27.1702 17.0247 27.3582C15.9763 23.0961 16.8556 18.6146 18.445 14.6893L18.4383 14.6893Z" fill="#504E4F"/>
<path d="M18.7967 48.2144C17.9242 48.9979 17.1396 47.2116 16.3821 46.812C16.7 46.4516 17.0111 46.099 17.3358 45.7543C17.7619 46.6161 18.2083 47.4858 18.8035 48.2144L18.7967 48.2144Z" fill="#66666A"/>
<path d="M17.7688 12.1664C17.9312 12.989 17.3766 14.5403 16.5649 14.556C16.4026 13.7333 16.9572 12.1742 17.7688 12.1664Z" fill="#606160"/>
<path d="M15.5979 43.6467C16.2607 44.2422 16.9371 44.8768 17.3293 45.7543C17.0115 46.099 16.6936 46.4516 16.3757 46.812L15.9969 46.7493C15.5032 46.6396 15.0027 46.5456 14.5022 46.6318C12.304 44.9865 10.0112 42.0249 8.66524 39.4238C8.94931 37.8803 7.38693 36.8226 6.98112 35.4594C7.65747 35.7257 8.40146 37.2849 9.044 36.6894C9.17251 36.5327 9.43629 36.2193 9.57832 36.0705L9.98413 35.8276C10.6605 36.8696 11.3098 37.9352 12.1214 38.844C12.2364 39.0399 12.4664 39.4394 12.5813 39.6431C12.7572 41.5392 14.394 42.589 15.5979 43.6546L15.5979 43.6467Z" fill="#8A8B8F"/>
<path d="M12.0939 23.9658C12.9731 28.9958 14.7249 33.7437 17.0313 38.1155C16.896 38.2879 16.6254 38.6248 16.4969 38.7893C14.4273 34.0963 12.1006 29.3327 11.776 23.958L12.0939 23.958L12.0939 23.9658Z" fill="#6C6E72"/>
<path d="M15.9964 46.7571C16.2467 47.3839 16.7472 47.9637 16.639 48.708C15.7935 48.2301 15.1916 47.3526 14.5017 46.6318C15.0089 46.5456 15.5027 46.6396 15.9964 46.7493L15.9964 46.7571Z" fill="#4F5155"/>
<path d="M16.0237 15.7783C15.9358 17.8076 14.8739 19.5782 14.8198 21.6231C14.3193 24.475 15.4488 27.2015 15.5299 30.0064L15.0903 29.928C13.927 25.5875 13.1965 19.3432 16.0169 15.7705L16.0237 15.7783Z" fill="#4C4C4D"/>
<path d="M10.0177 23.3312C10.6129 29.7401 13.3453 35.3576 16.071 40.8342C15.9696 41.0065 15.7532 41.3434 15.6449 41.5158C13.1424 36.1646 10.3153 30.7743 9.49688 24.6631C9.62538 24.334 9.88916 23.6681 10.0244 23.3312L10.0177 23.3312Z" fill="#656568"/>
<path d="M15.645 41.5157C15.76 42.072 15.8817 42.6439 15.6856 43.2002C15.1648 42.4402 14.617 41.7194 14.1097 40.9672C13.8391 39.7528 13.4604 38.5541 12.7773 37.5669C10.6332 34.4957 9.17906 30.8682 8.11718 27.1388C7.3529 23.856 7.09589 20.2677 8.10366 17.024C8.51623 15.9037 9.00997 14.8225 9.48342 13.7256C9.92305 13.2712 10.3694 12.8089 10.8091 12.3545C10.9646 12.6522 11.2825 13.2633 11.4381 13.5689C10.7888 14.7833 10.0989 16.0212 9.88247 17.455C9.34815 19.7976 9.32786 22.2577 9.49695 24.663C10.3153 30.7741 13.1493 36.1645 15.645 41.5157Z" fill="#DFDDE3"/>
<path d="M14.1096 40.9673C14.6169 41.7273 15.1715 42.4481 15.6855 43.2002L15.5976 43.639C14.3937 42.5735 12.7502 41.5236 12.5811 39.6276C13.0951 40.0585 13.6024 40.5051 14.1096 40.9595L14.1096 40.9673Z" fill="#68686E"/>
<path d="M11.3974 7.70848C11.6206 6.85449 12.4458 4.9898 13.3318 5.99266C12.9192 6.83882 12.2564 7.56746 11.3974 7.70848Z" fill="#6E686B"/>
<path d="M13.21 9.23645C12.4457 10.3098 11.6273 11.3283 10.8021 12.3547C10.3625 12.8091 9.92288 13.2792 9.47649 13.7258L9.00303 13.5926L9.13154 13.0677C10.491 11.8063 11.4176 9.59685 13.2032 9.23645L13.21 9.23645Z" fill="#8A868A"/>
<path d="M13.1626 16.2563C13.1085 17.8076 12.6689 19.2806 12.3442 20.7849C12.2089 20.636 11.9384 20.354 11.8031 20.2051C12.0398 18.8262 12.2428 17.267 13.1626 16.2563Z" fill="#636468"/>
<path d="M8.11042 27.1388C9.1723 30.8682 10.6265 34.4957 12.7705 37.5669C12.6555 37.7628 12.4188 38.1545 12.3038 38.3504C10.3897 35.0911 8.63122 31.6438 7.60992 27.8674C7.73167 27.6872 7.98868 27.319 8.11042 27.1388Z" fill="#646469"/>
<path d="M11.7966 20.2052C11.9318 20.3541 12.2024 20.6361 12.3376 20.785C12.2903 21.8505 12.243 22.916 12.0874 23.9737L11.7695 23.9737C11.7695 23.0336 11.7898 21.1454 11.7966 20.213L11.7966 20.2052Z" fill="#191314"/>
<path d="M7.60957 27.8596C8.63086 31.636 10.3894 35.0911 12.3035 38.3426L12.1141 38.8362C11.3025 37.9273 10.6464 36.8618 9.97681 35.8198C9.21253 34.2058 8.43472 32.5996 7.6028 31.0249C6.82499 29.6381 6.23657 28.1338 5.7293 26.5982C5.08 23.8403 5.10029 20.9493 5.21527 18.1131C5.70901 16.7185 6.2298 15.3239 7.11582 14.2035C7.77189 13.7726 8.31297 12.2213 9.13136 13.0596L9.00285 13.5845C8.46177 14.4307 7.88687 15.2847 7.59604 16.3032C6.16217 19.9621 6.39213 24.1302 7.60957 27.8596Z" fill="#DAD8DF"/>
<path d="M11.8574 13.7963C11.3637 15.0577 10.897 16.3348 10.3965 17.5884L9.8757 17.4552C10.0854 16.0214 10.782 14.7757 11.4313 13.5691L11.8574 13.8041L11.8574 13.7963Z" fill="#737177"/>
<path d="M10.3962 17.5881C9.88897 19.4528 9.7537 21.3724 10.0175 23.3311C9.88897 23.6601 9.62519 24.3261 9.48992 24.663C9.32083 22.2499 9.34112 19.7976 9.87544 17.455L10.3962 17.5881Z" fill="#262322"/>
<path d="M7.60988 31.0251C8.4418 32.5999 9.21961 34.2061 9.98389 35.8201L9.57808 36.0629C8.67852 34.6683 7.8466 33.2111 7.10261 31.6989C7.23112 31.5266 7.48137 31.1975 7.60988 31.0251Z" fill="#707072"/>
<path d="M9.47656 13.7257C9.00311 14.8148 8.50937 15.896 8.0968 17.0242C7.97505 16.844 7.7248 16.4836 7.5963 16.3112C7.88713 15.2927 8.46203 14.4387 9.00311 13.5925L9.47656 13.7257Z" fill="#525459"/>
<path d="M7.10242 31.6986C7.85318 33.2108 8.67833 34.668 9.57788 36.0626C9.44261 36.2115 9.17883 36.5249 9.04356 36.6816C7.887 34.8796 6.87246 32.9522 5.77677 31.1032C4.23468 28.1103 3.24044 24.7021 2.83463 21.2627C3.024 19.1943 3.55832 17.1807 4.1738 15.2377C5.18157 14.0076 6.15553 12.7384 7.10919 11.4613C7.32562 11.477 7.76525 11.5162 7.98168 11.5318C7.50824 12.1978 7.02802 12.8481 6.60868 13.5689C5.87145 14.7441 5.18834 16.0055 4.78252 17.3844C3.73418 20.5889 4.28879 24.1694 5.26274 27.3111C5.75648 28.8311 6.43283 30.2649 7.10242 31.6908L7.10242 31.6986Z" fill="#D9D8DD"/>
<path d="M5.77691 31.1112C6.8726 32.9602 7.88714 34.8797 9.0437 36.6895C8.40117 37.2928 7.65717 35.7259 6.98082 35.4595C7.37987 36.8227 8.94225 37.8804 8.66494 39.4239C6.71704 37.1283 4.61358 34.1354 3.51112 31.1895C3.57199 29.0819 2.28015 27.2486 2.00285 25.1645C2.11783 24.8511 2.35455 24.2087 2.46953 23.8875C3.11883 26.5748 4.07249 29.1368 5.16142 31.6204C5.31698 31.4951 5.62135 31.2365 5.77691 31.1112Z" fill="#787C7D"/>
<path d="M7.69098 8.56262C8.1509 9.62032 6.832 10.0982 6.20299 10.4586L5.71602 10.4743C5.58751 9.31476 7.0552 9.13456 7.69098 8.56262Z" fill="#56564C"/>
<path d="M7.59633 16.311C7.72483 16.4834 7.97508 16.8438 8.09683 17.024C7.08906 20.2676 7.34607 23.856 8.11035 27.1388C7.98861 27.319 7.7316 27.6872 7.60985 27.8674C6.39241 24.138 6.16245 19.9777 7.59633 16.311Z" fill="#272524"/>
<path d="M5.73636 26.5983C6.24363 28.1339 6.83206 29.646 7.60986 31.0249C7.48136 31.1973 7.23111 31.5264 7.1026 31.6987C6.42624 30.2728 5.75665 28.839 5.26291 27.3191C5.37789 27.1389 5.62138 26.7785 5.73636 26.5983Z" fill="#4B4D4C"/>
<path d="M7.10921 11.4614C6.15555 12.7385 5.18159 13.9999 4.17383 15.2378L4.07237 14.6188C4.62698 13.2242 5.67533 12.2919 6.64929 11.3047L7.11597 11.4614L7.10921 11.4614Z" fill="#4A4748"/>
<path d="M6.60201 13.5691C6.73052 13.7258 6.9943 14.047 7.1228 14.2037C6.23001 15.3163 5.71599 16.7187 5.22225 18.1133C5.11403 17.9331 4.89083 17.5648 4.78262 17.3846C5.19519 15.9979 5.87155 14.7443 6.60877 13.5691L6.60201 13.5691Z" fill="#404045"/>
<path d="M5.96622 10.7484C6.13531 10.8816 6.47349 11.1637 6.64258 11.3047C5.67539 12.284 4.62028 13.2164 4.06567 14.6188C3.03761 16.1309 2.48976 17.9486 1.93515 19.7428C1.8337 19.4216 1.63755 18.7791 1.5361 18.45C1.97573 15.2613 4.15359 13.0048 5.96622 10.7562L5.96622 10.7484Z" fill="#C2C4C4"/>
<path d="M6.20295 10.4586L5.96623 10.7563C4.1536 13.0128 1.97573 15.2692 1.5361 18.4501C1.13706 20.7222 1.38055 23.0022 2.00956 25.1646C2.2801 27.2486 3.5787 29.082 3.51783 31.1895C1.27909 27.7657 -0.195362 23.4566 0.0210709 19.1239C1.04237 15.755 2.77383 11.9237 5.72274 10.4743L6.20972 10.4586L6.20295 10.4586Z" fill="#2E312C"/>
<path d="M5.22254 18.1133C5.10756 20.9495 5.08727 23.8405 5.73657 26.5984C5.62159 26.7786 5.3781 27.139 5.26312 27.3192C4.28917 24.1774 3.73456 20.5969 4.78291 17.3925C4.89113 17.5727 5.11432 17.9409 5.22254 18.1211L5.22254 18.1133Z" fill="#2C2929"/>
<path d="M2.83496 21.2705C3.24754 24.71 4.23501 28.1182 5.7771 31.1111C5.62154 31.2364 5.31718 31.495 5.16162 31.6203C4.07945 29.1367 3.12579 26.5747 2.46973 23.8874C2.09097 22.5476 1.77984 21.1687 1.93541 19.7427C2.49002 17.9486 3.04463 16.1309 4.06592 14.6188L4.16738 15.2377C3.55189 17.1886 3.01757 19.1943 2.82819 21.2627L2.83496 21.2705Z" fill="#2C2B2B"/>
</svg>
