<svg width="118" height="205" viewBox="0 0 118 205" fill="none" xmlns="http://www.w3.org/2000/svg">
<path d="M107.213 21.1029C107.25 21.692 108.11 23.9453 106.96 23.3937C106.437 20.757 105.034 18.3447 104.791 15.6706C106.371 16.7552 106.343 19.3825 107.213 21.1029Z" fill="#9F9D9F"/>
<path d="M18.1351 42.3181C20.8279 51.397 25.6151 60.3917 23.8293 70.1344C22.5764 75.333 20.4165 80.2324 17.7985 84.8793L17.4713 84.2435C19.1262 79.1758 22.2585 74.6037 23.0065 69.2461C23.4272 67.1985 23.8106 65.048 23.0158 63.0471C22.2491 56.1748 19.4909 49.7514 17.3684 43.2157C17.5554 42.9913 17.9388 42.5425 18.1258 42.3181L18.1351 42.3181Z" fill="#545256"/>
<path d="M13.8622 141.213C14.0024 142.223 14.2736 144.242 14.4045 145.262C14.4138 146.421 14.4605 148.73 14.4792 149.88C14.3483 151.76 14.339 153.62 14.2174 155.509C14.0117 156.173 13.806 156.846 13.619 157.538L13.03 157.678C12.9552 152.171 13.9931 146.72 13.8622 141.213Z" fill="#48474A"/>
<path d="M105.548 57.97C103.725 65.796 96.778 72.182 97.6663 80.8027C97.0305 90.1527 100.677 98.923 103.426 107.637L102.893 107.488L102.407 107.338C98.9753 98.4742 96.1983 89.0868 96.3947 79.5031C97.3951 71.7613 101.808 65.1508 105.043 58.2318L105.539 57.9794L105.548 57.97Z" fill="#777679"/>
<path d="M13.6658 106.824C13.7593 111.162 13.7219 115.51 13.7032 119.858L13.0487 119.858C13.0487 115.519 13.0206 111.19 13.0487 106.852L13.6564 106.824L13.6658 106.824Z" fill="#424144"/>
<path d="M63.0431 108.909C66.3717 122.12 71.215 135.285 70.3361 149.151L69.7284 149.179L69.1206 149.179C69.1487 148.74 69.1954 147.833 69.2141 147.384C69.6068 145.318 69.9715 143.195 69.3076 141.157C68.8869 129.974 64.6513 119.437 62.024 108.666L62.5569 108.787L63.0431 108.909Z" fill="#8D8C8F"/>
<path d="M7.85014 131.583C7.85949 133.976 7.91558 136.351 7.86883 138.754L7.21434 138.754C7.15824 136.36 7.22369 133.967 7.21434 131.583L7.85949 131.583L7.85014 131.583Z" fill="#A7A7A9"/>
<path d="M1.97826 133.565C2.01566 139.184 2.00631 144.794 1.97826 150.423L1.38921 150.516C1.37051 144.832 1.29571 139.147 1.38921 133.471L1.97826 133.565Z" fill="#A7A7A9"/>
<path d="M57.0497 67.8717C53.4406 81.7284 59.5555 95.4448 62.5569 108.787L62.0239 108.666C58.6579 97.2774 54.8338 85.6554 54.7309 73.6406C55.2919 71.4901 55.2452 68.5075 56.6664 67.0769C56.7599 67.2826 56.9562 67.666 57.0497 67.8717Z" fill="#838283"/>
<path d="M27.6067 23.319C27.8311 24.2259 27.99 25.1516 28.1116 26.0772C27.9152 30.3315 26.8774 34.5109 25.5497 38.5501C25.3627 39.3262 25.0261 40.3079 24.1285 40.4856C24.4838 35.128 27.5225 30.2099 27.4571 24.7589C27.4851 24.4036 27.5693 23.6743 27.6067 23.319Z" fill="#575659"/>
<path d="M76.2266 160.231C76.1237 162.082 75.2168 164.719 73.5618 165.448C73.8984 163.625 75.0111 162.082 75.7123 160.39L76.2266 160.231Z" fill="#848385"/>
<path d="M64.6888 86.4782C64.7729 89.6852 66.4746 92.5931 66.4746 95.8001L65.8669 95.7066C64.8571 90.7605 63.4826 85.7115 63.305 80.6812L63.6416 80.7466C65.3059 82.1491 64.1465 84.5988 64.6981 86.4782L64.6888 86.4782Z" fill="#848385"/>
<path d="M21.0524 13.5668C21.1739 13.9315 21.4264 14.6514 21.5573 15.0161C21.604 16.3905 21.5292 17.765 21.3983 19.1301C21.2674 18.915 20.9963 18.4943 20.856 18.2792C20.7812 16.7084 20.856 15.1283 21.0617 13.5668L21.0524 13.5668Z" fill="#7D7B7E"/>
<path d="M92.0842 33.0897C92.9818 36.811 92.4769 40.766 92.0281 44.5247C91.7756 40.7193 91.6915 36.8858 92.0842 33.0897Z" fill="#BABAB9"/>
<path d="M80.7707 77.5022C79.8264 82.8597 81.8273 87.9368 82.061 93.1821L81.4533 93.126C80.7988 90.3678 80.1349 87.5628 80.0788 84.711C80.1256 82.3081 80.0788 79.9238 80.1349 77.5209C80.1723 77.1562 80.2565 76.4269 80.2845 76.0623C80.4061 76.4176 80.6492 77.1469 80.7707 77.5022Z" fill="#454549"/>
<path d="M106.857 69.0497C106.334 72.5559 104.66 75.8752 104.782 79.4936L104.174 79.4936C104.305 76.1463 104.548 71.5181 106.867 69.0497L106.857 69.0497Z" fill="#9E9D9F"/>
<path d="M18.8738 62.6263C20.482 68.6477 19.3506 75.0338 17.4713 80.8682C17.331 80.6812 17.0505 80.3072 16.9009 80.1202C17.1066 77.3245 18.079 74.6411 18.453 71.8735C18.8738 69.8165 19.2197 67.6567 18.4904 65.6371C18.1912 64.646 18.2286 63.5894 18.266 62.5703L18.8644 62.6263L18.8738 62.6263Z" fill="#4B494E"/>
<path d="M48.1952 2.05704C49.8969 10.2289 51.5893 18.4289 52.1316 26.7597C52.1316 29.3684 52.1316 31.977 52.1316 34.5857C51.8698 42.1966 47.9989 48.9753 44.2963 55.4081C41.0051 61.4763 39.2005 68.1709 38.331 74.9964C38.0505 74.7907 37.4895 74.3793 37.209 74.1736C38.0318 64.1317 43.1556 55.2024 47.7932 46.5069C49.6632 42.8604 50.5514 38.8025 51.0283 34.754C51.4303 31.6311 51.9259 28.3679 51.0844 25.2731C50.6543 17.1386 48.2794 9.31264 46.9143 1.34644C46.4468 -0.186959 48.3729 1.44929 48.1952 2.05704Z" fill="#4E4D50"/>
<path d="M29.1309 191.03C30.6456 193.283 29.7667 196.2 30.0191 198.706C29.3366 200.24 29.4862 203.269 27.3544 203.25L27.5788 202.764C29.4301 199.146 30.2061 194.349 27.8125 190.787C28.4109 190.151 28.8504 190.235 29.1309 191.03Z" fill="#575658"/>
<path d="M13.6191 157.538C13.6752 158.735 13.8061 161.129 13.8716 162.325C13.8716 163.373 13.8529 165.467 13.8435 166.514L13.189 166.72C13.1049 166.28 12.9272 165.402 12.8431 164.953C12.8898 163.101 12.9179 161.259 12.9085 159.427C12.9366 158.987 13.002 158.109 13.0301 157.669L13.6191 157.529L13.6191 157.538Z" fill="#2B292F"/>
<path d="M28.3173 61.0274C29.1214 64.3654 28.0181 67.7033 28.1116 71.0693C27.2701 72.0511 26.6249 73.1731 25.9798 74.2951C24.437 74.5849 23.0719 77.5769 25.6151 76.511C25.3066 79.69 24.8671 82.869 24.7269 86.0667C24.1378 85.5992 23.5394 85.1317 22.9036 84.7016C22.6138 86.4688 23.5114 91.0316 20.8747 89.2925C20.8934 88.8437 20.9308 87.9554 20.9401 87.5066C21.2954 86.0854 21.6133 84.6736 21.9125 83.2524C22.2211 82.1023 23.1561 80.9242 22.6979 79.6994C21.4263 80.0547 21.4637 82.0462 21.4544 83.1869C20.9121 84.5053 20.4726 85.8984 20.2856 87.3103C19.9677 89.9376 19.734 92.5743 19.547 95.211L19.4909 95.9123C15.2927 95.4915 20.5474 89.7039 16.4521 89.1709C16.9103 87.7497 17.3871 86.3285 17.7798 84.8793C20.3978 80.2323 22.5483 75.3329 23.8106 70.1343C25.5964 60.3916 20.8186 51.3876 18.1164 42.3181C17.0131 38.709 15.3582 35.2027 15.0029 31.4066C16.2464 31.9302 17.7705 31.7619 18.7803 32.725C19.2197 36.0629 19.8368 39.4476 21.3889 42.4677C24.063 48.4984 27.4664 54.3609 28.2986 61.0274L28.3173 61.0274Z" fill="#E7E6E7"/>
<path d="M7.31709 144.093C6.83089 153.789 7.02724 163.606 9.36474 173.078C9.19644 173.302 8.85984 173.732 8.69154 173.947C8.21469 171.928 7.75654 169.908 7.24229 167.907C7.12074 165.392 6.71869 162.886 6.33534 160.409C6.57844 155.145 6.60649 149.871 6.54104 144.607C6.53169 141.952 6.48494 139.306 6.39145 136.65C6.5504 133.022 6.53169 129.395 6.54104 125.776L7.1301 125.655C7.1862 127.618 7.16749 129.61 7.20489 131.583C7.22359 133.957 7.15814 136.351 7.20489 138.735C7.24229 140.512 7.27969 142.298 7.31709 144.084L7.31709 144.093Z" fill="#454346"/>
<path d="M17.3685 43.2157C19.4816 49.7513 22.2492 56.1748 23.0159 63.047C22.8756 65.1134 23.0159 67.1704 23.0065 69.2461C22.2585 74.6036 19.1263 79.1758 17.4713 84.2435C17.2937 83.991 16.9103 83.4768 16.7233 83.2243C16.9851 82.4389 17.2376 81.6535 17.4807 80.8681C19.36 75.0337 20.4914 68.6477 18.8832 62.6263C17.275 54.2487 13.4695 46.563 10.6365 38.5781C12.5813 38.2134 12.3662 35.9975 11.7678 34.5856C11.3284 33.1177 13.0488 33.0148 13.937 32.4445C15.0777 36.0442 16.0688 39.6814 17.3778 43.2157L17.3685 43.2157Z" fill="#EAE9EA"/>
<path d="M76.713 40.6164C77.0215 47.7785 74.2352 54.791 70.57 60.8311C67.8492 65.3752 64.3149 69.91 64.3429 75.4826C64.1653 75.6883 63.8193 76.0903 63.6417 76.3054L63.3051 76.3708C63.2864 66.6748 71.7014 60.0831 73.908 51.023C76.4231 45.3475 74.9926 39.0549 75.7967 33.099C76.18 35.5954 76.3577 38.12 76.713 40.6164Z" fill="#616064"/>
<path d="M71.6359 76.2399C71.6639 78.8486 71.6546 81.4479 71.6359 84.0565L71.0094 84.0565C71.7761 82.0276 69.6537 77.1936 71.6452 76.2399L71.6359 76.2399Z" fill="#939292"/>
<path d="M13.0488 18.298C13.0488 20.6916 13.0769 23.0758 13.0488 25.4694L12.413 25.4694C12.413 23.6742 12.413 20.1025 12.413 18.3073L13.0488 18.3073L13.0488 18.298Z" fill="#AEADAC"/>
<path d="M57.2741 117.296C59.2563 124.523 60.799 131.9 61.2478 139.39C61.2478 141.998 61.2478 144.607 61.2384 147.216C61.1449 153.836 59.1908 160.296 56.0585 166.103C55.2077 167.374 55.0207 169.478 53.3751 170.039C54.5626 165.701 57.8631 162.138 58.6111 157.632C62.4072 144.775 60.1819 131.19 56.7972 118.511C56.9188 118.203 57.1525 117.604 57.2647 117.296L57.2741 117.296Z" fill="#747376"/>
<path d="M32.5623 68.4327C32.5623 68.9096 32.5623 69.8633 32.5623 70.3495C32.1415 72.9955 31.8423 75.6603 31.4496 78.3157C31.3 77.3433 31.0756 76.3709 30.7577 75.4265C30.5988 73.0703 31.3187 70.7702 32.0106 68.5543L32.5529 68.4327L32.5623 68.4327Z" fill="#747376"/>
<path d="M22.7073 79.6994C23.1655 80.9243 22.2398 82.1023 21.9219 83.2524L21.4638 83.1869C21.4638 82.0369 21.4357 80.0547 22.7073 79.6994Z" fill="#7B7A7D"/>
<path d="M33.7778 0.794747C34.4136 5.0303 35.6197 9.35935 35.6384 13.5668C35.4608 14.2494 35.2925 14.9413 35.1429 15.6332L34.5725 15.7734C34.3668 10.7151 33.8339 5.6474 32.581 0.738647C32.8708 0.757347 33.4692 0.794747 33.7684 0.804097L33.7778 0.794747Z" fill="#525153"/>
<path d="M61.8744 139.399C61.1357 141.419 63.2395 146.271 61.2292 147.216C61.2292 144.607 61.2386 141.999 61.2386 139.39L61.8744 139.39L61.8744 139.399Z" fill="#CBCBCC"/>
<path d="M33.2447 59.9241C35.5074 61.9998 34.1049 66.4411 32.5715 68.4233L32.0292 68.5448C32.6837 66.6468 33.4504 64.73 33.2167 62.6824C33.2167 61.7567 33.2167 60.8404 33.2447 59.9241Z" fill="#A0A0A2"/>
<path d="M14.5822 92.4715C14.7318 92.6959 15.0403 93.126 15.1899 93.3504C14.685 96.679 14.2362 100.036 14.1521 103.411C13.8435 104.524 13.7126 105.674 13.6565 106.824L13.0488 106.852C13.0768 105.15 13.1236 103.467 13.189 101.784C13.6846 98.6799 13.9183 95.5476 14.5822 92.4715Z" fill="#5F5E61"/>
<path d="M72.2156 112.733C77.6012 127.702 82.5754 144.467 76.6943 160.063L76.2361 160.222L75.7219 160.381C80.5745 146.58 78.1342 131.255 73.0384 117.866C71.8042 113.705 70.1119 109.685 69.0086 105.487C71.3087 106.768 71.0095 110.583 72.2156 112.724L72.2156 112.733Z" fill="#9A9A9B"/>
<path d="M27.4572 24.7588C27.5227 30.2098 24.4839 35.1279 24.1286 40.4855C24.2221 41.8786 23.8481 43.2157 23.2778 44.4779C22.7542 43.5336 22.2025 42.5986 21.6228 41.6916C21.2488 39.7562 20.5008 37.9236 20.1081 35.9975C21.8659 37.1662 22.1838 34.595 23.6144 34.062C25.7181 31.5936 24.1941 26.4792 27.4572 24.7588Z" fill="#EDECEC"/>
<path d="M42.7724 179.183C41.2951 182.484 39.21 185.841 38.434 189.506C37.0502 191.572 39.0417 194.91 37.0315 196.528L36.4892 196.752C36.6201 190.207 38.9482 183.943 42.2394 178.351C42.3797 178.557 42.6415 178.978 42.7817 179.183L42.7724 179.183Z" fill="#6E6D70"/>
<path d="M97.6757 141.353C96.937 143.373 99.0408 148.226 97.0399 149.17L97.0399 141.344L97.6757 141.344L97.6757 141.353Z" fill="#DAD8D5"/>
<path d="M23.4741 0.00935C23.2123 2.4123 22.9412 4.81525 22.7355 7.2182L22.1464 7.2369L21.5293 7.2369C21.9875 4.87135 20.9216 1.22485 23.4741 0L23.4741 0.00935Z" fill="#959496"/>
<path d="M8.69159 173.947C10.1502 181.334 14.1987 187.907 15.6106 195.293C13.058 194.527 13.9182 198.257 11.7958 198.005C11.749 188.206 6.50369 179.492 4.75524 170.011C5.57804 169.3 6.40084 168.59 7.23299 167.907C7.74724 169.908 8.20539 171.928 8.68224 173.947L8.69159 173.947Z" fill="#E3E2E2"/>
<path d="M31.8797 93.3036C32.955 111.592 38.6678 129.451 37.7235 147.861C36.7417 159.969 34.4136 172.227 28.8877 183.138C28.8223 182.802 28.682 182.138 28.6166 181.801C35.0774 167.187 37.4804 150.928 36.3023 135.033C34.7876 120.793 31.646 106.768 30.6268 92.4715L31.2159 92.5557C31.3748 92.7427 31.7114 93.1166 31.8704 93.3036L31.8797 93.3036Z" fill="#545355"/>
<path d="M36.9846 180.455C36.0964 182.634 35.0024 184.728 33.9552 186.832C33.5999 187.626 32.9361 188.225 32.3751 188.87C32.1039 188.851 31.5616 188.805 31.2905 188.786C33.7028 186.187 34.9463 182.821 36.3114 179.614C36.4797 179.819 36.8163 180.249 36.9846 180.455Z" fill="#686669"/>
<path d="M19.042 176.472C19.4628 177.444 20.3697 178.463 20.0799 179.576C18.9953 179.585 18.5278 178.061 18.3969 177.164C18.5558 176.986 18.8831 176.64 19.042 176.472Z" fill="#AEADAE"/>
<path d="M45.5962 137.445C45.6149 141.12 45.7084 144.804 45.5869 148.497L44.9604 148.497C44.9511 144.822 44.9604 141.129 44.9604 137.445L45.5962 137.445Z" fill="#9B9B9B"/>
<path d="M114.225 143.747C114.861 145.57 114.515 147.468 114.16 149.329C113.889 147.478 113.832 145.58 114.225 143.747Z" fill="#7B7B7F"/>
<path d="M42.922 172.666C44.4367 173.592 42.4545 174.574 41.8654 175.378C41.3231 176.229 42.4451 176.724 42.8846 177.257C42.7256 177.528 42.4077 178.08 42.2488 178.342C38.9576 183.933 36.6201 190.207 36.4985 196.743C36.4985 198.874 36.4985 201.044 36.5172 203.185L35.9282 203.147C35.1895 197.827 35.442 192.46 35.1241 187.093C34.8342 187.019 34.2732 186.888 33.9834 186.822C35.0306 184.709 36.1152 182.615 37.0128 180.446C38.1722 177.818 38.995 175.06 40.117 172.423C40.0796 174.789 41.9215 173.471 42.9407 172.657L42.922 172.666Z" fill="#EEEDED"/>
<path d="M20.9495 87.5067C20.9401 87.9462 20.9027 88.8438 20.884 89.2926C20.8373 91.228 20.9027 93.1635 20.856 95.1083L20.2202 95.1737L19.5563 95.2205C19.734 92.5838 19.9771 89.9471 20.295 87.3197L20.9495 87.5067Z" fill="#767579"/>
<path d="M87.8301 138.576C87.8395 138.941 87.8862 139.661 87.9049 140.026C87.933 142.859 87.933 145.682 87.933 148.525C88.3818 159.838 81.1542 169.179 75.1328 178.015C71.692 183.55 69.0273 189.646 67.8398 196.069C67.4658 198.117 68.2699 201.801 66.4186 203.278C65.6145 191.161 72.3091 180.315 78.8635 170.694C83.2486 165.121 86.2593 158.408 86.839 151.292C87.4842 147.356 87.2598 143.373 87.2691 139.408C87.4094 139.203 87.6992 138.791 87.8395 138.586L87.8301 138.576Z" fill="#636265"/>
<path d="M15.564 174.462C17.5368 181.867 21.7817 188.431 23.605 195.892C22.6793 198.033 23.9509 203.241 20.9215 203.952C24.8485 193.91 17.3124 184.737 14.7599 175.369C14.9656 175.144 15.3583 174.686 15.564 174.462Z" fill="#5A585A"/>
<path d="M82.6221 93.2475C84.651 102.373 88.3349 111.05 91.6074 119.764C91.4952 119.97 91.2802 120.372 91.168 120.568C89.9338 119.297 89.7281 116.81 88.7557 115.117C86.0816 107.88 83.1831 100.671 81.4533 93.1166L82.0611 93.1727L82.6221 93.2475Z" fill="#666666"/>
<path d="M98.2366 115.426C105.866 131.293 110.158 151.059 101.621 167.412C95.3568 177.977 86.5491 187.692 84.3612 200.174C87.1008 204.672 82.5473 203.465 82.7437 201.857C83.9498 195.078 87.1662 188.861 90.3172 182.811C97.0679 173.153 104.987 163.036 105.034 150.629C105.436 147.721 105.941 144.673 105.109 141.793C104.352 135.21 102.837 128.619 100.191 122.522C99.4428 120.091 97.7972 117.857 97.685 115.286L98.2273 115.416L98.2366 115.426Z" fill="#59585A"/>
<path d="M62.9872 2.84249C65.1844 11.8091 68.0455 20.729 68.4008 30.0323C68.3728 33.2861 68.4008 36.5399 68.4008 39.803C68.5598 50.4433 61.1078 58.662 57.0499 67.8717C56.9564 67.666 56.7601 67.2827 56.6666 67.077C58.4805 60.9995 63.277 56.3245 65.2499 50.275C70.383 35.4179 66.7833 19.392 62.2579 4.85274C61.7156 3.76814 61.5192 0.738738 62.9872 2.84249Z" fill="#59585A"/>
<path d="M28.1117 71.0693C25.3535 78.9888 26.223 87.3664 25.8584 95.6131C25.3535 97.4176 25.3722 99.2876 25.1852 101.158C24.2502 96.2021 25.0262 91.0783 24.7364 86.0761C24.8766 82.869 25.3161 79.6994 25.6246 76.5204C25.9799 75.8191 26.1015 75.0805 25.9893 74.3044C26.6251 73.1824 27.2796 72.0604 28.1211 71.0787L28.1117 71.0693Z" fill="#646466"/>
<path d="M46.905 71.0226C46.9143 72.7617 46.9143 74.5101 46.8956 76.2492C45.4744 75.6508 46.5684 72.6121 46.2972 71.0506L46.905 71.0226Z" fill="#AFAEAE"/>
<path d="M43.9505 19.8407C44.4274 25.2918 44.9229 30.9766 43.3708 36.3154C42.1553 42.4771 38.5556 47.8159 35.5823 53.2389C34.8062 54.1926 34.4229 55.6793 33.1887 56.1187C35.8347 48.62 41.6504 42.3088 42.6509 34.1649C43.455 25.993 43.1932 17.6528 41.3793 9.62116C41.3512 6.55436 39.6776 3.77741 39.7337 0.729309C40.0329 0.748009 40.6406 0.785409 40.9398 0.794759C42.4639 7.05926 43.0529 13.4827 43.9505 19.8407Z" fill="#504F51"/>
<path d="M25.8584 95.6131C26.728 108.974 28.6073 122.242 29.8041 135.566C30.8981 151.47 28.0744 167.449 22.6233 182.362C22.3522 182.166 21.8379 181.773 21.5668 181.577C26.2324 169.637 29.0561 156.818 28.7195 143.953C28.8411 129.591 25.3816 115.501 25.1759 101.148C25.3722 99.2877 25.3535 97.4083 25.8491 95.6038L25.8584 95.6131Z" fill="#504F51"/>
<path d="M99.5081 22.945C102.481 35.3711 102.715 48.9193 96.9649 60.6068C95.0949 66.2635 90.2142 70.7796 89.7467 76.8945L89.2231 76.8945C89.0922 76.7168 88.8398 76.3241 88.7089 76.1278C90.4012 69.6108 94.7957 64.3281 97.1426 58.0916C99.7232 52.5938 100.135 46.3948 100.929 40.4575C101.387 34.4922 99.5923 28.7046 98.9471 22.8328L99.5081 22.9543L99.5081 22.945Z" fill="#706E72"/>
<path d="M108.924 169.917C109.054 170.095 109.326 170.46 109.457 170.637C104.267 179.408 97.3576 187.29 94.1319 197.107C92.9818 199.015 93.5989 201.941 91.8318 203.278C91.7102 199.8 93.2904 196.649 94.562 193.517C98.0402 184.915 103.959 177.659 108.933 169.917L108.924 169.917Z" fill="#545357"/>
<path d="M81.1167 114.229C83.0895 120.194 85.9319 126.029 86.6519 132.274C86.549 132.63 86.334 133.34 86.2311 133.696C84.0619 122.56 78.8446 112.34 75.6937 101.494L76.2173 101.653C78.4052 105.178 79.2934 110.171 81.1167 114.238L81.1167 114.229Z" fill="#727172"/>
<path d="M8.66351 106.038C7.53216 112.555 6.48495 119.147 6.54105 125.767C6.5317 129.395 6.55041 133.023 6.39146 136.641C5.9894 139.268 5.88655 141.933 5.88655 144.598C6.2512 149.824 5.15725 155.247 6.3447 160.399C6.7187 162.877 7.1301 165.383 7.25165 167.898C6.4195 168.581 5.5967 169.291 4.7739 170.002C3.28725 163.578 1.80995 157.043 1.97825 150.423C2.01565 144.794 2.025 139.184 1.97825 133.565C2.10915 124.467 3.71736 115.351 7.15816 106.899C7.53216 106.674 8.2895 106.244 8.67285 106.029L8.66351 106.038Z" fill="#EDECED"/>
<path d="M17.4713 84.2435L17.7986 84.8793C17.4059 86.3286 16.929 87.7404 16.4709 89.171C16.0127 90.5548 15.62 91.9573 15.1993 93.3504C15.0497 93.126 14.7411 92.6959 14.5915 92.4715C14.9188 90.7044 16.1904 88.9092 15.1806 87.142C15.62 85.805 16.1249 84.496 16.7327 83.2244C16.9197 83.4768 17.303 83.9911 17.4807 84.2435L17.4713 84.2435Z" fill="#8B898D"/>
<path d="M117.208 31.3318C117.245 35.8853 117.264 40.4387 117.208 44.9922L116.6 44.9922C116.507 40.4294 116.544 35.8759 116.581 31.3318L117.208 31.3318Z" fill="#A5A4A3"/>
<path d="M116.6 44.9828C116.507 46.6658 116.675 49.3213 115.207 50.2376C115.562 48.6013 115.3 45.8243 116.6 44.9828Z" fill="#ABAAAC"/>
<path d="M114.608 22.225C116.357 22.6644 114.936 26.6008 115.945 27.461C114.683 26.526 114.833 23.8706 114.608 22.225Z" fill="#B6B6B7"/>
<path d="M112.607 16.3157C114.16 17.5312 114.599 20.224 114.608 22.2249C113.346 20.8972 113 18.2605 112.607 16.3157Z" fill="#B7B7B8"/>
<path d="M113.356 55.3613C112.486 59.7184 109.718 63.5145 107.895 67.5724C106.867 68.3952 107.615 66.0484 107.886 65.6183C109.915 62.3738 110.878 58.1476 113.365 55.3613L113.356 55.3613Z" fill="#A5A4A7"/>
<path d="M110.046 33.2766C110.046 36.493 110.148 39.7187 110.027 42.9351L109.513 43.2063C109.391 39.9057 109.307 36.5958 109.438 33.2953L110.046 33.2672L110.046 33.2766Z" fill="#656265"/>
<path d="M110.027 42.9352C109.55 46.8809 108.839 50.9201 107.297 54.6134L106.736 54.8004C107.371 51.1352 108.662 47.5822 108.896 43.8422C109.054 43.6832 109.354 43.3747 109.503 43.2064L110.018 42.9352L110.027 42.9352Z" fill="#8B8A8D"/>
<path d="M104.782 79.4937C104.183 85.057 105.371 90.3958 106.184 95.8188L105.623 95.6973C104.754 90.3304 103.473 84.9728 103.557 79.5031L104.164 79.5031L104.772 79.4937L104.782 79.4937Z" fill="#AEAEAF"/>
<path d="M105.118 141.793C105.95 144.673 105.445 147.721 105.043 150.628C104.969 147.702 104.52 144.701 105.118 141.793Z" fill="#999897"/>
<path d="M56.7226 177.117C56.2177 181.053 53.394 184.289 52.7582 188.206C51.5427 189.814 52.9639 192.573 51.3557 193.91L50.8508 194.2C51.0845 188.178 53.796 182.699 56.1709 177.304L56.7319 177.126L56.7226 177.117Z" fill="#807E82"/>
<path d="M101.49 6.58243C101.518 6.92838 101.603 7.62028 101.631 7.95688C100.013 6.72268 99.237 4.04858 98.9472 1.99158C100.546 2.71153 100.565 5.19863 101.49 6.58243Z" fill="#A9AAA9"/>
<path d="M69.7284 149.17C69.2983 155.032 67.793 161.101 64.3241 165.925L63.7818 166.121C66.0819 160.68 68.5503 155.154 69.13 149.179L69.7378 149.179L69.7284 149.17Z" fill="#7E7D81"/>
<path d="M96.002 139.848C96.8622 143.588 96.3947 147.524 95.9366 151.283C95.6748 147.478 95.5813 143.644 96.002 139.848Z" fill="#AFAEAA"/>
<path d="M93.7766 35.8853C93.7766 37.6712 93.7766 41.2522 93.7673 43.0381L93.1315 43.0381C93.1315 40.6538 93.1034 38.2696 93.1315 35.876L93.7673 35.876L93.7766 35.8853Z" fill="#D3D4D3"/>
<path d="M52.7582 26.7784C52.0195 28.8073 54.1139 33.6319 52.1224 34.595C52.1224 31.9863 52.1224 29.3777 52.1224 26.769L52.7582 26.769L52.7582 26.7784Z" fill="#D3D4D3"/>
<path d="M86.8203 8.40566C90.2611 17.1853 92.636 26.4418 93.1409 35.876C93.1128 38.2696 93.1409 40.6538 93.1409 43.0474C93.0661 52.7714 88.8212 61.9157 83.6693 69.9754C82.6128 72.4064 81.2103 74.8094 81.3412 77.5489L80.7802 77.4928C80.6586 77.1375 80.4249 76.4082 80.294 76.0529C80.9859 71.1816 84.6324 67.0395 86.652 62.5796C89.7468 57.035 91.4298 50.8079 92.0282 44.506C92.4864 40.7473 92.9819 36.8016 92.0843 33.071C91.1119 23.9454 88.5407 15.0722 85.2682 6.52631C86.1751 6.68526 86.5678 7.62961 86.8203 8.38696L86.8203 8.40566Z" fill="#58575A"/>
<path d="M88.5593 140.054C88.5874 142.859 88.6809 145.682 88.55 148.497L87.9329 148.515C87.9329 145.673 87.9329 142.849 87.9048 140.016L88.5593 140.044L88.5593 140.054Z" fill="#CACBCA"/>
<path d="M87.2129 132.2C86.5397 134.397 88.2788 136.435 87.83 138.576C87.6897 138.782 87.3999 139.193 87.2596 139.399L86.6706 139.437C86.7267 137.492 86.2498 135.575 86.2311 133.686C86.334 133.331 86.549 132.63 86.6519 132.265L87.2129 132.19L87.2129 132.2Z" fill="#878788"/>
<path d="M87.2597 139.399C87.2503 143.354 87.4747 147.347 86.8296 151.283C86.6052 147.337 86.4743 143.382 86.6706 139.446L87.2597 139.409L87.2597 139.399Z" fill="#D0D0CE"/>
<path d="M78.1997 3.9644C82.1267 15.2779 85.0906 27.087 85.3431 39.1391C85.4179 47.4139 82.9121 55.5297 78.9851 62.7385C75.6097 67.9558 71.8884 73.6593 72.2624 80.1482C71.9352 87.5254 74.7682 94.5285 76.2175 101.644L75.6939 101.485C73.6743 95.903 72.01 90.0125 71.636 84.0565C71.664 81.4479 71.664 78.8392 71.636 76.2399C72.3559 68.2363 79.1721 62.3365 81.5096 54.8191C87.1383 37.8301 82.7344 19.5509 76.8626 3.30055C76.4606 1.7391 78.1342 3.43145 78.1997 3.9644Z" fill="#535255"/>
<path d="M80.1443 77.5209C80.0882 79.9145 80.1349 82.3081 80.0882 84.711L79.4617 84.711C79.4617 82.9252 79.4711 79.3441 79.4804 77.5583L80.1443 77.5302L80.1443 77.5209Z" fill="#A1A19F"/>
<path d="M21.978 12.6318C22.0061 13.2863 22.8289 15.4275 21.5573 15.0254C21.4264 14.6608 21.1833 13.9408 21.0524 13.5762C21.0243 12.9123 20.2109 10.7712 21.4918 11.1826C21.6134 11.5472 21.8565 12.2672 21.978 12.6318Z" fill="#BEBDBC"/>
<path d="M69.5789 1.47736C74.656 13.7726 77.2366 27.3021 76.7036 40.6071C76.3483 38.1107 76.1707 35.5862 75.7873 33.0897C75.0954 22.225 72.6177 11.379 68.4195 1.32776C68.7094 1.36516 69.2891 1.43996 69.5789 1.47736Z" fill="#575657"/>
<path d="M69.3077 141.157C69.9809 143.186 69.6069 145.318 69.2142 147.384C69.1207 145.299 68.8215 143.205 69.3077 141.157Z" fill="#AFAFB1"/>
<path d="M20.8559 95.0988C20.912 100.587 20.912 106.085 20.6782 111.574C19.3692 106.244 20.6408 100.597 20.2201 95.1643L20.8559 95.0988Z" fill="#AFAFB1"/>
<path d="M69.0366 30.0228C69.0366 32.4632 69.0366 37.3439 69.0366 39.7842L68.4008 39.7842C68.4102 36.5398 68.3821 33.2766 68.4008 30.0228L69.0366 30.0228Z" fill="#AAABA8"/>
<path d="M63.6322 76.296C64.0249 77.6985 64.0249 79.3441 63.6322 80.7466L63.2956 80.6811C63.0338 79.288 63.0245 77.7546 63.2956 76.3614L63.6322 76.296Z" fill="#4A4A4E"/>
<path d="M63.2302 182.306C62.1456 187.14 59.4435 191.703 59.5557 196.892C59.3126 198.463 58.8357 201.614 58.602 203.185C58.1532 196.107 59.5837 188.898 62.7066 182.54L63.2209 182.297L63.2302 182.306Z" fill="#7A797C"/>
<path d="M33.0764 39.9058C31.9918 42.5332 30.7109 45.1231 29.2429 47.5822C28.9531 47.4045 28.3827 47.0586 28.0929 46.8903C29.8507 44.478 30.7296 41.327 32.5528 39.0737C32.6837 39.2794 32.9455 39.7001 33.0764 39.9058Z" fill="#4D4C4E"/>
<path d="M51.7296 136.594C52.6926 140.764 52.1223 145.131 51.6548 149.329C51.58 145.093 51.047 140.792 51.7296 136.594Z" fill="#BCBCBA"/>
<path d="M53.4128 137.445L53.4128 147.206L52.777 147.206C52.777 143.943 52.749 140.699 52.777 137.445L53.4128 137.445Z" fill="#BCBDBB"/>
<path d="M43.296 85.1411C46.0823 102.626 51.0191 119.802 52.7769 137.445C52.7489 140.699 52.7769 143.953 52.7769 147.206C52.8517 158.557 48.1861 169.431 42.7724 179.183C42.6322 178.978 42.3704 178.557 42.2301 178.351C42.3891 178.08 42.7163 177.538 42.8659 177.267C47.8588 168.749 50.8041 159.165 51.6456 149.329C52.1037 145.14 52.6834 140.764 51.7204 136.594C49.8971 117.978 44.0347 99.9328 41.6785 81.3824C43.1464 82.0275 43.6887 83.2804 43.2867 85.1411L43.296 85.1411Z" fill="#5A595C"/>
<path d="M51.3463 193.91C51.8138 196.976 50.804 200.296 52.0195 203.241L50.8508 203.166C50.8508 200.165 50.6918 197.182 50.8414 194.2L51.3463 193.91Z" fill="#626164"/>
<path d="M51.0846 25.2731C51.9261 28.3679 51.4306 31.6311 51.0285 34.754C50.935 31.6124 50.4582 28.396 51.0846 25.2731Z" fill="#8C8C8C"/>
<path d="M6.39166 136.65C6.48516 139.296 6.53191 141.952 6.54126 144.607L5.88676 144.607C5.88676 141.942 5.98961 139.278 6.39166 136.65Z" fill="#C7C7C7"/>
<path d="M27.6349 13.5575C28.4764 16.2035 27.9154 19.0553 27.5601 21.7387C27.317 19.0085 27.3357 16.2877 27.6349 13.5575Z" fill="#848383"/>
<path d="M37.0222 196.528C37.1812 198.725 37.1999 200.969 37.1157 203.185L36.4986 203.204C36.4706 201.062 36.4706 198.893 36.4799 196.761L37.0222 196.537L37.0222 196.528Z" fill="#38373C"/>
<path d="M36.4797 16.3531C36.4891 20.2521 36.6106 24.1604 36.461 28.05L35.8439 28.0781C35.8533 24.1698 35.8439 20.2615 35.8439 16.3625L36.4797 16.3625L36.4797 16.3531Z" fill="#A0A09D"/>
<path d="M35.6383 13.5668C35.7785 14.5018 35.844 15.4275 35.844 16.3625C35.844 20.2708 35.844 24.1697 35.844 28.078C35.7224 32.1172 34.9651 36.2967 33.0764 39.9058C32.9455 39.7001 32.6837 39.2793 32.5528 39.0736C32.8426 35.8198 34.9651 32.94 34.7407 29.546C35.498 24.9458 35.124 20.2614 35.1427 15.6238C35.2923 14.9319 35.4606 14.24 35.6383 13.5575L35.6383 13.5668Z" fill="#3E3D3F"/>
<path d="M35.1427 15.6238C35.124 20.2614 35.498 24.9364 34.7406 29.5459C34.5069 24.9551 34.4321 20.3549 34.5817 15.764L35.152 15.6238L35.1427 15.6238Z" fill="#B9B9B8"/>
<path d="M31.4777 87.7872C32.0761 89.5637 31.8704 91.443 31.8704 93.3037C31.7115 93.1167 31.3748 92.7427 31.2159 92.5557C31.2813 91.3682 31.4122 88.984 31.4777 87.7872Z" fill="#9C9CA1"/>
<path d="M30.7669 75.4171C31.0755 76.3615 31.3092 77.3339 31.4588 78.3063C31.1316 81.4572 31.3466 84.6269 31.4775 87.7872C31.4121 88.9746 31.2812 91.3589 31.2157 92.5557L30.6267 92.4715C30.5706 91.6768 30.5051 90.882 30.4303 90.0966C30.6454 86.0855 30.636 82.0743 30.4864 78.0725C30.5893 77.1843 30.6828 76.3054 30.7576 75.4265L30.7669 75.4171Z" fill="#2E2D32"/>
<path d="M30.496 78.0725C30.6456 82.0743 30.6549 86.0855 30.4399 90.0966C29.2898 86.207 30.0939 82.0089 30.496 78.0725Z" fill="#C2C2C0"/>
<path d="M28.8128 58.587C29.6356 62.6917 29.8506 67.1703 28.1115 71.0693C28.018 67.7126 29.1213 64.3747 28.3172 61.0274C27.4851 54.3608 24.0817 48.4984 21.4076 42.4676L21.632 41.6916C22.2117 42.5985 22.754 43.5335 23.2869 44.4779C25.4842 49.0126 27.8778 53.5941 28.8221 58.587L28.8128 58.587Z" fill="#5F5E60"/>
<path d="M4.7646 170.002C6.51305 179.483 11.7584 188.197 11.8052 197.996C11.8706 200.268 11.375 202.914 9.84165 204.606C10.0754 200.034 11.2909 195.293 9.8136 190.815C6.5411 179.426 2.0531 168.281 1.35186 156.313C1.39861 154.836 0.323351 153.405 0.865651 151.947C0.996551 151.592 1.25835 150.881 1.3799 150.526L1.96895 150.432C1.7913 157.061 3.27795 163.597 4.7646 170.011L4.7646 170.002Z" fill="#5F5E60"/>
<path d="M27.9994 0.0841064C28.0649 8.77961 29.0934 17.4377 28.7007 26.1519L28.1116 26.0865C27.9901 25.1608 27.8218 24.2352 27.6067 23.3282C27.5974 22.9355 27.5693 22.1408 27.56 21.7481C27.9153 19.0646 28.4669 16.2129 27.6348 13.5668C27.5787 9.07881 26.7185 4.60016 26.7465 0.0934564C27.0551 0.0934564 27.6815 0.0934564 27.9994 0.0934564L27.9994 0.0841064Z" fill="#676668"/>
<path d="M18.4998 65.6277C19.2291 67.6473 18.8738 69.8072 18.4624 71.8642C18.3502 69.7791 18.0697 67.6847 18.4998 65.6277Z" fill="#ABA9AA"/>
<path d="M25.9799 74.2857C26.0921 75.0711 25.9705 75.8098 25.6152 76.5017C23.072 77.5582 24.4371 74.5662 25.9799 74.2857Z" fill="#9C999C"/>
<path d="M23.0158 63.0471C23.8012 65.048 23.4178 67.1985 23.0064 69.2462C23.0064 67.1798 22.8755 65.1135 23.0158 63.0471Z" fill="#908E8F"/>
<path d="M22.3801 134.014C23.418 138.782 22.8196 143.841 22.3521 148.665C22.1464 143.784 22.1183 138.894 22.3801 134.014Z" fill="#A1A0A3"/>
<path d="M22.1464 7.24622C22.2493 9.04142 22.2212 10.8553 21.9875 12.6318C21.8659 12.2672 21.6228 11.5472 21.5013 11.1826C21.4545 9.86422 21.4826 8.55522 21.5293 7.24622L22.1464 7.24622Z" fill="#68666D"/>
<path d="M21.9219 83.2524C21.6227 84.6736 21.2954 86.0854 20.9495 87.5066L20.295 87.3196C20.4726 85.8984 20.9214 84.5146 21.4637 83.1963L21.9219 83.2617L21.9219 83.2524Z" fill="#A4A3A6"/>
<path d="M14.7598 175.369C17.303 184.737 24.8484 193.9 20.9214 203.952C19.2104 203.512 18.7335 201.502 17.0692 201.1C17.5741 192.404 12.8991 184.719 10.412 176.659C10.7299 176.584 11.3751 176.444 11.693 176.369C11.908 173.415 9.61726 169.562 13.0394 167.879C13.6004 170.376 13.9931 172.928 14.7598 175.369Z" fill="#EEEDEE"/>
<path d="M21.3983 19.1395C21.7349 21.4864 19.6966 28.3306 20.1921 20.9254C20.4913 20.168 19.575 18.0736 20.856 18.2887C20.9962 18.5037 21.2674 18.9245 21.3983 19.1395Z" fill="#A6A5A6"/>
<path d="M20.1081 35.9975C20.5008 37.9236 21.2488 39.7562 21.6228 41.6916L21.3984 42.4677C19.8463 39.4476 19.2292 36.0629 18.7897 32.725C19.6593 30.1818 19.7621 34.6791 20.0987 35.9975L20.1081 35.9975Z" fill="#807F80"/>
<path d="M21.0336 133.396C21.7816 138.876 21.7722 144.476 21.0336 149.965C20.6689 144.448 20.8933 138.913 21.0336 133.396Z" fill="#AEADA9"/>
<path d="M19.4349 99.5401C19.5565 103.327 19.5658 107.132 19.3601 110.928C18.3036 107.245 19.0048 103.271 19.4349 99.5401Z" fill="#D3D3D0"/>
<path d="M18.8176 2.0944C14.1519 10.5468 12.7494 20.6168 14.395 30.079C14.2828 30.4343 14.0584 31.1355 13.9462 31.5002C13.3665 29.5367 13.0767 27.5264 13.058 25.4881C13.086 23.0945 13.058 20.7009 13.058 18.3167C13.1515 12.3607 15.6012 6.8442 17.7797 1.4212C18.0415 1.59885 18.5651 1.93545 18.8269 2.1131L18.8176 2.0944Z" fill="#525054"/>
<path d="M15.0215 31.4066C15.3768 35.2027 17.0317 38.709 18.135 42.3181C17.9387 42.5425 17.5647 42.9913 17.3777 43.2157C16.0593 39.6814 15.0776 36.0442 13.9369 32.4445C13.9369 32.2107 13.9369 31.7245 13.9462 31.4908C14.0584 31.1355 14.2828 30.4249 14.395 30.0696L14.9186 30.0228C14.9467 30.3688 14.9934 31.0607 15.0215 31.4066Z" fill="#656464"/>
<path d="M10.412 176.65C12.8897 184.719 17.5741 192.395 17.0692 201.09C16.8635 202.39 16.3305 204.017 15.0028 204.55C15.3394 201.474 16.0407 198.388 15.6106 195.284C14.1987 187.898 10.1502 181.325 8.69159 173.938C8.85989 173.723 9.19649 173.284 9.36479 173.068C9.72009 174.256 10.0193 175.471 10.412 176.65Z" fill="#5B595A"/>
<path d="M15.1711 87.1419C16.1809 88.9091 14.9093 90.7136 14.5821 92.4714C13.9182 95.5476 13.6845 98.6798 13.1889 101.784C12.5531 101.485 11.8986 101.204 11.2348 100.933C11.7584 99.1847 13.0019 97.2586 11.6088 95.5756C12.8804 92.7987 13.8902 89.9095 15.1618 87.1419L15.1711 87.1419Z" fill="#D0D0D1"/>
<path d="M13.8529 166.514C14.5261 169.132 14.9749 171.816 15.564 174.452C15.3583 174.677 14.9656 175.135 14.7599 175.359C14.0025 172.91 13.6005 170.366 13.0395 167.87C13.0675 167.58 13.1517 167 13.1891 166.72L13.8436 166.514L13.8529 166.514Z" fill="#6C6A6D"/>
<path d="M14.339 119.867C14.6663 128.338 15.461 136.79 14.9374 145.28L14.4138 145.262C14.2736 144.242 14.0024 142.223 13.8715 141.213C13.8435 134.088 13.4601 126.973 13.0581 119.876L13.7126 119.876L14.3484 119.876L14.339 119.867Z" fill="#585758"/>
<path d="M14.9375 145.28C15.564 146.795 15.405 148.338 14.4794 149.88C14.4607 148.73 14.4233 146.421 14.4046 145.262L14.9282 145.28L14.9375 145.28Z" fill="#97979B"/>
<path d="M14.1521 103.411C14.6009 108.89 14.2923 114.379 14.3391 119.858L13.7033 119.858C13.7126 115.501 13.7594 111.162 13.6659 106.814C13.722 105.664 13.8435 104.514 14.1614 103.402L14.1521 103.411Z" fill="#8D8D90"/>
<path d="M14.2176 155.509C14.4233 157.791 14.2924 160.063 13.8716 162.325C13.8062 161.129 13.6753 158.735 13.6192 157.538C13.8062 156.856 14.0119 156.173 14.2176 155.509Z" fill="#AAABAE"/>
<path d="M12.9084 159.436C12.9084 161.269 12.8897 163.111 12.843 164.962C12.1043 163.176 12.6186 161.25 12.9084 159.436Z" fill="#E1E0DF"/>
<path d="M11.6181 95.5757C13.0019 97.2587 11.7584 99.1848 11.2441 100.933C10.44 103.112 9.86034 105.346 9.34609 107.609C9.17779 107.216 8.84119 106.422 8.67289 106.029C9.19649 104.346 10.3278 102.523 9.31804 100.793C9.87904 98.9604 10.6457 97.2026 11.6275 95.5663L11.6181 95.5757Z" fill="#969496"/>
<path d="M11.8145 2.67408C10.0847 7.14338 7.32645 11.22 7.00855 16.1755C6.4195 19.3077 6.95246 22.5709 6.12031 25.6564C4.91416 17.7276 6.72806 9.72398 10.627 2.79563C10.9262 2.76758 11.5153 2.70213 11.8145 2.66473L11.8145 2.67408Z" fill="#555256"/>
<path d="M9.30875 100.802C10.3186 102.532 9.18721 104.346 8.66361 106.038C8.28961 106.253 7.53225 106.684 7.14891 106.908C7.72861 104.823 8.38311 102.757 9.29941 100.812L9.30875 100.802Z" fill="#D9D8D8"/>
<path d="M7.00863 16.1849C6.84968 22.1782 7.34524 28.05 8.85059 33.819C8.75709 34.1743 8.57944 34.8755 8.48594 35.2215C6.88709 33.1738 6.39154 28.6952 6.12039 25.6658C6.94319 22.5709 6.41023 19.3078 7.00863 16.1849Z" fill="#7C797B"/>
<path d="M8.66372 106.038C8.83202 106.431 9.16861 107.226 9.33691 107.619C8.39256 113.126 7.52301 118.67 7.73806 124.28C7.58846 124.626 7.27992 125.309 7.13032 125.655L6.54126 125.776C6.48517 119.147 7.53237 112.565 8.66372 106.048L8.66372 106.038Z" fill="#5E5D60"/>
<path d="M7.73779 124.28C7.84999 126.711 7.88739 129.142 7.84999 131.583L7.20484 131.583C7.17679 129.61 7.18614 127.618 7.13004 125.655C7.27964 125.309 7.58819 124.626 7.73779 124.28Z" fill="#878487"/>
<path d="M7.8689 138.754C7.8502 140.549 7.59775 142.298 7.3266 144.093C7.29855 142.307 7.2518 140.521 7.2144 138.745L7.8689 138.745L7.8689 138.754Z" fill="#CBCCCE"/>
<path d="M6.54114 144.607C6.60659 149.871 6.57854 155.145 6.33544 160.409C5.14799 155.257 6.24194 149.834 5.87729 144.607L6.53179 144.607L6.54114 144.607Z" fill="#959595"/>
<path d="M0.884334 131.405C1.07133 132.087 1.23963 132.779 1.37988 133.471C1.28638 139.156 1.35183 144.841 1.37988 150.516C1.25833 150.872 0.996529 151.582 0.865629 151.938C0.753429 151.003 0.697327 150.077 0.687977 149.142C0.706677 144.149 0.706677 139.165 0.687977 134.182C0.697328 133.247 0.772129 132.312 0.893679 131.386L0.884334 131.405Z" fill="#403D40"/>
<path d="M0.678846 134.191C0.697546 139.175 0.697546 144.158 0.678845 149.151L0.0430451 149.151C0.0430453 144.168 -0.0598025 139.175 0.0523978 134.201L0.669494 134.201L0.678846 134.191Z" fill="#C6C6C5"/>
</svg>
