<svg width="22" height="97" viewBox="0 0 22 97" fill="none" xmlns="http://www.w3.org/2000/svg">
<path d="M15.4341 18.8028C15.2981 19.935 15.0423 21.0477 14.6708 22.123C14.482 22.6481 14.2584 23.16 14.0014 23.6552L13.807 24.0241L13.5927 24.3671C13.4502 24.5978 13.2952 24.8207 13.1284 25.0346C12.46 25.9077 11.6389 26.6552 10.7025 27.243C9.78556 27.8398 8.75168 28.2445 7.66343 28.4327L7.23725 28.4928C7.09539 28.5168 6.95277 28.511 6.81018 28.5228C6.52579 28.5395 6.24016 28.5362 5.95546 28.5128C5.88432 28.5124 5.81327 28.5049 5.74336 28.4905L5.53272 28.4569C5.39135 28.4401 5.25096 28.4149 5.11232 28.3816C4.83668 28.3141 4.56463 28.2322 4.29735 28.1361C4.03615 28.035 3.78405 27.9116 3.54399 27.7672C3.30555 27.6306 3.08031 27.4724 2.87127 27.2946C2.46962 26.9631 2.15452 26.5413 1.95353 26.0659C1.70542 25.405 1.67039 24.6884 1.8533 24.0153C1.94178 23.6485 2.07345 23.294 2.24563 22.9587C2.2858 22.8723 2.33497 22.7898 2.37935 22.705C2.42893 22.6232 2.48329 22.5442 2.5346 22.4633C2.63187 22.2979 2.74107 22.1398 2.86139 21.99C2.98671 21.8436 3.09729 21.6849 3.23233 21.546L3.64507 21.1348L4.10001 20.7642C4.25004 20.6385 4.42535 20.5432 4.58602 20.4299C5.25824 20.0068 5.99456 19.6896 6.76911 19.4894C8.31416 19.0822 9.96074 19.1781 11.466 19.7627L11.9976 20.0178C12.0875 20.0601 12.1747 20.1078 12.2587 20.1607C12.3438 20.2127 12.433 20.2583 12.5152 20.3148C12.8513 20.5303 13.1688 20.7731 13.4642 21.0408C14.0549 21.5871 14.5591 22.2175 14.9594 22.9103C15.7656 24.3446 16.2374 25.9331 16.3401 27.5581C16.4721 29.2019 16.3093 30.8501 15.8593 32.427C15.3608 34.0267 14.6855 35.5645 13.8453 37.0131C13.0019 38.4875 12.0412 39.9129 11.0497 41.3445C9.84144 43.1196 8.59043 44.8831 7.4629 46.8074C6.86242 47.809 6.40908 48.8915 6.11613 50.0232C5.97156 50.6198 5.90172 51.233 5.90814 51.8491C5.91922 52.4615 5.99801 53.0722 6.14311 53.6704C6.29199 54.2519 6.49088 54.8208 6.73762 55.3707C6.98371 55.9042 7.26275 56.4228 7.57317 56.9235C8.18254 57.8941 8.86956 58.816 9.62753 59.6803C11.0977 61.3821 12.6646 62.9378 14.1214 64.5446C15.5803 66.1446 16.9245 67.8139 17.9173 69.6432C18.4134 70.5606 18.8365 71.5135 19.1828 72.4932C19.8682 74.4607 20.2297 76.5181 20.2533 78.5862C20.2613 79.6163 20.1893 80.644 20.0382 81.6602C19.8809 82.6724 19.6385 83.6684 19.3135 84.6379L19.057 85.3591L18.7604 86.0652C18.6677 86.3031 18.547 86.5289 18.4367 86.7591C18.3245 86.9885 18.2168 87.2201 18.0864 87.4403C17.4959 88.529 16.8138 89.5657 16.047 90.5397C15.2762 91.5082 14.4158 92.4034 13.4766 93.2143C13.2595 93.4148 13.0358 93.587 12.8281 93.76C12.6203 93.9329 12.4248 94.1023 12.227 94.2492C12.0326 94.4007 11.849 94.5482 11.6761 94.6916C11.4972 94.8258 11.3272 94.9541 11.1681 95.0803C10.8541 95.34 10.5595 95.5504 10.3082 95.7611C10.059 95.9761 9.83361 96.1545 9.64416 96.3281C9.09216 96.8339 9.17755 97.0641 9.8469 96.9846C10.0522 96.9577 10.2554 96.9183 10.4554 96.8669C10.6886 96.7988 10.9536 96.7054 11.2515 96.5923C11.9743 96.2994 12.6661 95.9392 13.3174 95.5163C14.3209 94.8612 15.2575 94.1128 16.1144 93.2809C16.9815 92.4308 17.764 91.5006 18.4514 90.5026C20.0195 88.2461 21.1006 85.6903 21.6291 82.9899C22.1416 80.3041 22.1228 77.5361 21.5737 74.8369C21.0368 72.1377 19.9609 69.5607 18.409 67.257C16.8617 64.9675 14.9808 62.9847 13.1796 61.0206C12.1898 59.9364 11.1794 58.8256 10.3014 57.695C9.86763 57.1388 9.46551 56.5596 9.09693 55.9601C8.75008 55.3885 8.45295 54.7895 8.20878 54.1699C7.83028 53.2364 7.67934 52.2321 7.76827 51.2391C7.90577 50.2217 8.23413 49.2419 8.73665 48.3496C9.26672 47.3887 9.8461 46.4557 10.4726 45.5541C11.097 44.63 11.7465 43.7137 12.3974 42.7893C13.7426 40.9309 14.961 38.9851 16.0448 36.9645C16.5851 35.9266 17.0425 34.8476 17.4129 33.7371C18.3681 30.9081 18.4503 27.8478 17.6491 24.9392C17.1692 23.1624 16.2338 21.5291 14.9337 20.198C14.2649 19.5341 13.495 18.9774 12.6531 18.5491C11.8076 18.1142 10.8926 17.8309 9.95187 17.7126C9.02338 17.5846 8.08321 17.598 7.16441 17.7522C6.25071 17.9095 5.366 18.1914 4.5355 18.5897C3.79307 18.9517 3.10421 19.4096 2.48674 19.9516C1.87276 20.5118 1.34511 21.1575 0.919878 21.8689C0.495036 22.6012 0.205476 23.4039 0.0643919 24.2404C-0.00570767 24.6783 -0.0186363 25.1244 0.025923 25.5678C0.0742799 26.0257 0.192212 26.4751 0.375744 26.9009C0.748257 27.7306 1.3286 28.4564 2.06128 29.0088C2.40946 29.2789 2.78435 29.5134 3.17995 29.7084C3.37524 29.8068 3.57528 29.8955 3.77928 29.9741C3.98187 30.0585 4.19013 30.1088 4.39594 30.1764L4.70585 30.2706C4.80891 30.3031 4.91633 30.3155 5.02149 30.3385C5.23299 30.3783 5.44438 30.4221 5.65665 30.4558C6.50494 30.5553 7.36085 30.5386 8.19991 30.4061C8.61121 30.3305 9.01721 30.2311 9.41582 30.1085C9.81194 29.9882 10.2001 29.8448 10.5781 29.6791C10.7677 29.599 10.9466 29.4995 11.131 29.41L11.4054 29.2718C11.4945 29.2221 11.5807 29.1679 11.6685 29.1159C12.3718 28.7059 13.028 28.2232 13.6262 27.6759C14.2219 27.1265 14.7607 26.5201 15.2348 25.8652C15.6883 25.204 16.0826 24.5045 16.4132 23.7743C17.0448 22.3327 17.4672 20.8071 17.6681 19.242C17.7746 18.4737 17.8414 17.6999 17.8681 16.9234C17.9009 16.1507 17.8954 15.3798 17.8667 14.6123C17.774 12.1564 17.3944 9.83267 17.0269 7.63203C16.6592 5.42966 16.266 3.3431 16.0581 1.32567C15.9664 0.398888 15.8825 -0.04895 15.7174 0.00424213C15.6459 0.0319368 15.5435 0.183975 15.444 0.468407C15.3811 0.639885 15.3289 0.815186 15.2877 0.993324C15.2271 1.2318 15.1806 1.47379 15.1484 1.7181C15.1001 2.10751 15.0542 2.50069 15.0196 2.89581C14.9949 3.09404 15.0014 3.29186 14.9962 3.48994C14.9942 3.68802 14.9887 3.88774 14.9902 4.08617C14.9916 4.88197 15.0146 5.67924 15.0592 6.47799C15.1556 8.07148 15.3096 9.65765 15.4334 11.215C15.5329 12.4967 15.6364 13.7703 15.6619 15.0395C15.6998 16.2936 15.6383 17.5468 15.4781 18.7876C15.4633 18.7922 15.4496 18.7966 15.4341 18.8028Z" fill="black"/>
</svg>
