<svg xmlns="http://www.w3.org/2000/svg" version="1.1" xmlns:xlink="http://www.w3.org/1999/xlink" xmlns:svgjs="http://svgjs.dev/svgjs" width="68" height="90"><svg width="68" height="90" viewBox="0 0 68 90" fill="none" xmlns="http://www.w3.org/2000/svg">
<path d="M5.55762 33.6155L31.6031 6.532C32.7904 5.29723 34.7307 5.29723 35.918 6.532L62.9993 34.692" stroke="#1F2937" stroke-width="9.27208" stroke-miterlimit="10" stroke-linecap="round"></path>
<path d="M5.55762 55.7779L31.6031 28.6944C32.7904 27.4596 34.7307 27.4596 35.918 28.6944L62.9993 56.8544" stroke="#1F2937" stroke-width="9.27208" stroke-miterlimit="10" stroke-linecap="round"></path>
<path d="M33.587 50.1529L16.8347 66.9051C16.515 67.2248 16.515 67.7432 16.8347 68.0629L33.587 84.8152C33.9067 85.1349 34.4251 85.1349 34.7448 84.8152L51.497 68.0629C51.8167 67.7432 51.8167 67.2248 51.497 66.9051L34.7448 50.1529C34.4251 49.8331 33.9067 49.8332 33.587 50.1529Z" stroke="#1F2937" stroke-width="9.27208" stroke-miterlimit="10" stroke-linecap="round"></path>
</svg><style>@media (prefers-color-scheme: light) { :root { filter: none; } }
@media (prefers-color-scheme: dark) { :root { filter: none; } }
</style></svg>